<?xml version="1.0" encoding="utf-8"?>
<!-- Generator: Adobe Illustrator 15.1.0, SVG Export Plug-In . SVG Version: 6.00 Build 0)  -->
<!DOCTYPE svg PUBLIC "-//W3C//DTD SVG 1.1//EN" "http://www.w3.org/Graphics/SVG/1.1/DTD/svg11.dtd">
<svg version="1.1" id="Layer_9" xmlns="http://www.w3.org/2000/svg" xmlns:xlink="http://www.w3.org/1999/xlink" x="0px" y="0px"
	 width="48px" height="48px" viewBox="0 0 48 48" enable-background="new 0 0 48 48" xml:space="preserve">
<rect fill="#F7E5C8" width="48" height="48"/>
<path fill="#222221" d="M34.5,37.5c-2.898,0-5.34-1.107-6.549-1.777c-2.122,0.959-4.782,0.957-6.902,0
	c-1.21,0.67-3.651,1.777-6.549,1.777v-3c3.092,0,5.62-1.716,5.646-1.732l0.811-0.559l0.839,0.52c1.516,0.949,3.892,0.949,5.408,0
	l0.841-0.525l0.814,0.568C28.88,32.785,31.407,34.5,34.5,34.5V37.5z"/>
<rect x="11.024" y="15" fill="#222221" width="7" height="7"/>
<rect x="31.049" y="15" fill="#222221" width="6.999" height="7"/>
<g>
	<defs>
		<path id="SVGID_1_" d="M0,25.625C0,41.75,12,55,13,36c0,0,4,12,11.5,12H0V25.625z"/>
	</defs>
	<clipPath id="SVGID_2_">
		<use xlink:href="#SVGID_1_"  overflow="visible"/>
	</clipPath>
	<path clip-path="url(#SVGID_2_)" fill="#222221" d="M21.552,48.275l0.353-0.353l1,0.999l-0.355,0.354L21.552,48.275z
		 M18.198,48.275l0.353-0.353l1,0.999l-0.355,0.354L18.198,48.275z M17.895,46.576l0.354-0.354l1,1l-0.354,0.354L17.895,46.576z
		 M19.583,46.889l0.354-0.354l1,1l-0.354,0.354L19.583,46.889z M18.198,44.922l0.353-0.354l1,0.998l-0.355,0.355L18.198,44.922z
		 M14.844,48.275l0.353-0.353l1,0.999l-0.355,0.354L14.844,48.275z M14.541,46.576l0.354-0.354l1,1l-0.354,0.354L14.541,46.576z
		 M16.229,46.889l0.354-0.354l1,1l-0.354,0.354L16.229,46.889z M14.844,44.922l0.353-0.354l1,0.998l-0.355,0.355L14.844,44.922z
		 M16.542,45.223l0.353-0.354l1,1l-0.354,0.354L16.542,45.223z M14.541,43.223l0.354-0.354l1,1l-0.354,0.354L14.541,43.223z
		 M16.229,43.534l0.354-0.353l1,1l-0.354,0.353L16.229,43.534z M14.844,41.566l0.353-0.353l1,0.999l-0.355,0.354L14.844,41.566z
		 M16.542,41.867l0.353-0.354l1,1l-0.354,0.354L16.542,41.867z M14.541,39.867l0.354-0.354l1,1l-0.354,0.354L14.541,39.867z
		 M11.49,48.275l0.353-0.353l1,0.999l-0.355,0.354L11.49,48.275z M13.188,48.576l0.353-0.354l1,1l-0.354,0.354L13.188,48.576z
		 M11.187,46.576l0.354-0.354l1,1l-0.354,0.354L11.187,46.576z M12.875,46.889l0.354-0.354l1,1l-0.354,0.354L12.875,46.889z
		 M11.49,44.922l0.353-0.354l1,0.998l-0.355,0.355L11.49,44.922z M13.188,45.223l0.353-0.354l1,1l-0.354,0.354L13.188,45.223z
		 M11.187,43.223l0.354-0.354l1,1l-0.354,0.354L11.187,43.223z M12.875,43.534l0.354-0.353l1,1l-0.354,0.353L12.875,43.534z
		 M11.49,41.566l0.353-0.353l1,0.999l-0.355,0.354L11.49,41.566z M13.188,41.867l0.353-0.354l1,1l-0.354,0.354L13.188,41.867z
		 M11.187,39.867l0.354-0.354l1,1l-0.354,0.354L11.187,39.867z M12.875,40.18l0.354-0.354l1,1l-0.354,0.354L12.875,40.18z
		 M11.49,38.213l0.353-0.354l1,1l-0.355,0.354L11.49,38.213z M13.188,38.514l0.353-0.354l1,1l-0.354,0.354L13.188,38.514z
		 M8.136,48.275l0.353-0.353l1,0.999l-0.355,0.354L8.136,48.275z M7.833,46.576l0.354-0.354l1,1l-0.354,0.354L7.833,46.576z
		 M9.521,46.889l0.354-0.354l1,1l-0.354,0.354L9.521,46.889z M8.136,44.922l0.353-0.354l1,0.998l-0.355,0.355L8.136,44.922z
		 M9.833,45.223l0.354-0.354l1,1l-0.354,0.354L9.833,45.223z M4.782,48.275l0.353-0.353l1,0.999L5.78,49.275L4.782,48.275z
		 M4.479,46.576l0.354-0.354l1,1l-0.354,0.354L4.479,46.576z M6.167,46.889l0.354-0.354l1,1l-0.354,0.354L6.167,46.889z
		 M4.782,44.922l0.353-0.354l1,0.998L5.78,45.922L4.782,44.922z M6.479,45.223l0.354-0.354l1,1l-0.354,0.354L6.479,45.223z
		 M4.479,43.223l0.354-0.354l1,1l-0.354,0.354L4.479,43.223z M6.167,43.534l0.354-0.353l1,1l-0.354,0.353L6.167,43.534z
		 M1.428,48.275l0.353-0.353l1,0.999l-0.355,0.354L1.428,48.275z M1.125,46.576l0.354-0.354l1,1l-0.354,0.354L1.125,46.576z
		 M2.812,46.889l0.355-0.354l1,1l-0.355,0.354L2.812,46.889z M1.428,44.922l0.353-0.354l1,0.998l-0.355,0.355L1.428,44.922z
		 M3.125,45.223l0.354-0.354l1,1l-0.354,0.354L3.125,45.223z M1.125,43.223l0.354-0.354l1,1l-0.354,0.354L1.125,43.223z
		 M2.812,43.534l0.355-0.353l1,1l-0.355,0.353L2.812,43.534z M1.428,41.566l0.353-0.353l1,0.999l-0.355,0.354L1.428,41.566z
		 M3.125,41.867l0.354-0.354l1,1l-0.354,0.354L3.125,41.867z M1.125,39.867l0.354-0.354l1,1l-0.354,0.354L1.125,39.867z
		 M2.812,40.18l0.355-0.354l1,1L3.812,41.18L2.812,40.18z M1.428,38.213l0.353-0.354l1,1l-0.355,0.354L1.428,38.213z M1.125,36.514
		l0.354-0.354l1,1l-0.354,0.354L1.125,36.514z M-0.542,46.889l0.354-0.354l1,1l-0.354,0.354L-0.542,46.889z M-0.229,45.223
		l0.354-0.354l1,1l-0.354,0.354L-0.229,45.223z M-0.542,43.534l0.354-0.353l1,1l-0.354,0.353L-0.542,43.534z M-0.229,41.867
		l0.354-0.354l1,1l-0.354,0.354L-0.229,41.867z M-0.542,40.18l0.354-0.354l1,1L0.458,41.18L-0.542,40.18z M-0.229,38.514
		l0.354-0.354l1,1l-0.354,0.354L-0.229,38.514z M-0.542,36.826l0.354-0.354l1,1l-0.354,0.354L-0.542,36.826z M-0.229,35.16
		l0.354-0.354l1,1L0.771,36.16L-0.229,35.16z M-0.542,33.473l0.354-0.354l1,1l-0.354,0.354L-0.542,33.473z M-0.229,31.807
		l0.354-0.354l1,1l-0.354,0.354L-0.229,31.807z M-0.542,30.118l0.354-0.353l1,1l-0.354,0.353L-0.542,30.118z M-0.229,28.451
		l0.354-0.354l1,1l-0.354,0.354L-0.229,28.451z"/>
</g>
<g>
	<defs>
		<path id="SVGID_3_" d="M48,25.625C48,41.75,36,55,36,36c0,0-5,12-12.5,12H48V25.625z"/>
	</defs>
	<clipPath id="SVGID_4_">
		<use xlink:href="#SVGID_3_"  overflow="visible"/>
	</clipPath>
	<path clip-path="url(#SVGID_4_)" fill="#222221" d="M45.029,48.275l0.354-0.353l1,0.999l-0.355,0.354L45.029,48.275z
		 M44.727,46.576l0.354-0.354l1,1l-0.354,0.354L44.727,46.576z M46.414,46.889l0.355-0.354l1,1l-0.355,0.354L46.414,46.889z
		 M45.029,44.922l0.354-0.354l1,0.998l-0.355,0.355L45.029,44.922z M46.729,45.223l0.352-0.354l1,1l-0.354,0.354L46.729,45.223z
		 M44.727,43.223l0.354-0.354l1,1l-0.354,0.354L44.727,43.223z M46.414,43.534l0.355-0.353l1,1l-0.355,0.353L46.414,43.534z
		 M45.029,41.566l0.354-0.353l1,0.999l-0.355,0.354L45.029,41.566z M46.729,41.867l0.352-0.354l1,1l-0.354,0.354L46.729,41.867z
		 M44.727,39.867l0.354-0.354l1,1l-0.354,0.354L44.727,39.867z M46.414,40.18l0.355-0.354l1,1l-0.355,0.354L46.414,40.18z
		 M45.029,38.213l0.354-0.354l1,1l-0.355,0.354L45.029,38.213z M46.729,38.514l0.352-0.354l1,1l-0.354,0.354L46.729,38.514z
		 M44.727,36.514l0.354-0.354l1,1l-0.354,0.354L44.727,36.514z M46.414,36.826l0.355-0.354l1,1l-0.355,0.354L46.414,36.826z
		 M46.729,35.16l0.352-0.354l1,1l-0.354,0.354L46.729,35.16z M46.414,33.473l0.355-0.354l1,1l-0.355,0.354L46.414,33.473z
		 M46.729,31.807l0.352-0.354l1,1l-0.354,0.354L46.729,31.807z M46.414,30.118l0.355-0.353l1,1l-0.355,0.353L46.414,30.118z
		 M46.729,28.451l0.352-0.354l1,1l-0.354,0.354L46.729,28.451z M41.676,48.275l0.354-0.353l1,0.999l-0.354,0.354L41.676,48.275z
		 M41.373,46.576l0.354-0.354l1,1l-0.354,0.354L41.373,46.576z M43.061,46.889l0.354-0.354l1,1l-0.354,0.354L43.061,46.889z
		 M41.676,44.922l0.354-0.354l1,0.998l-0.354,0.355L41.676,44.922z M43.374,45.223l0.353-0.354l1,1l-0.354,0.354L43.374,45.223z
		 M41.373,43.223l0.354-0.354l1,1l-0.354,0.354L41.373,43.223z M43.061,43.534l0.354-0.353l1,1l-0.354,0.353L43.061,43.534z
		 M43.374,41.867l0.353-0.354l1,1l-0.354,0.354L43.374,41.867z M43.061,40.18l0.354-0.354l1,1l-0.354,0.354L43.061,40.18z
		 M38.322,48.275l0.354-0.353l1,0.999l-0.355,0.354L38.322,48.275z M38.02,46.576l0.354-0.354l1,1l-0.354,0.354L38.02,46.576z
		 M39.707,46.889l0.355-0.354l1,1l-0.355,0.354L39.707,46.889z M38.322,44.922l0.354-0.354l1,0.998l-0.355,0.355L38.322,44.922z
		 M40.021,45.223l0.352-0.354l1,1l-0.354,0.354L40.021,45.223z M34.969,48.275l0.352-0.353l1,0.999l-0.354,0.354L34.969,48.275z
		 M34.665,46.576l0.354-0.354l1,1l-0.354,0.354L34.665,46.576z M36.354,46.889l0.354-0.354l1,1l-0.354,0.354L36.354,46.889z
		 M34.969,44.922l0.352-0.354l1,0.998l-0.354,0.355L34.969,44.922z M36.666,45.223l0.354-0.354l1,1l-0.354,0.354L36.666,45.223z
		 M34.665,43.223l0.354-0.354l1,1l-0.354,0.354L34.665,43.223z M36.354,43.534l0.354-0.353l1,1l-0.354,0.353L36.354,43.534z
		 M34.969,41.566l0.352-0.353l1,0.999l-0.354,0.354L34.969,41.566z M34.665,39.867l0.354-0.354l1,1l-0.354,0.354L34.665,39.867z
		 M34.969,38.213l0.352-0.354l1,1l-0.354,0.354L34.969,38.213z M34.665,36.514l0.354-0.354l1,1l-0.354,0.354L34.665,36.514z
		 M31.613,48.275l0.354-0.353l1,0.999l-0.355,0.354L31.613,48.275z M31.311,46.576l0.354-0.354l1,1l-0.354,0.354L31.311,46.576z
		 M32.998,46.889l0.355-0.354l1,1l-0.355,0.354L32.998,46.889z M31.613,44.922l0.354-0.354l1,0.998l-0.355,0.355L31.613,44.922z
		 M33.312,45.223l0.352-0.354l1,1l-0.354,0.354L33.312,45.223z M31.311,43.223l0.354-0.354l1,1l-0.354,0.354L31.311,43.223z
		 M32.998,43.534l0.355-0.353l1,1l-0.355,0.353L32.998,43.534z M31.613,41.566l0.354-0.353l1,0.999l-0.355,0.354L31.613,41.566z
		 M33.312,41.867l0.352-0.354l1,1l-0.354,0.354L33.312,41.867z M32.998,40.18l0.355-0.354l1,1l-0.355,0.354L32.998,40.18z
		 M33.312,38.514l0.352-0.354l1,1l-0.354,0.354L33.312,38.514z M28.26,48.275l0.354-0.353l1,0.999l-0.354,0.354L28.26,48.275z
		 M27.957,46.576l0.354-0.354l1,1l-0.354,0.354L27.957,46.576z M29.645,46.889l0.354-0.354l1,1l-0.354,0.354L29.645,46.889z
		 M28.26,44.922l0.354-0.354l1,0.998l-0.354,0.355L28.26,44.922z M29.958,45.223l0.353-0.354l1,1l-0.354,0.354L29.958,45.223z
		 M29.645,43.534l0.354-0.353l1,1l-0.354,0.353L29.645,43.534z M24.906,48.275l0.354-0.353l1,0.999l-0.355,0.354L24.906,48.275z
		 M26.291,46.889l0.355-0.354l1,1l-0.355,0.354L26.291,46.889z"/>
</g>
<path fill="#222221" d="M36,34.35c-3.186,0-6.566-1.742-8.245-2.742c-0.831,0.271-1.998,0.556-3.255,0.556s-2.424-0.283-3.254-0.556
	c-1.679,1-5.06,2.742-8.246,2.742v-4.5c2.397,0,5.743-1.929,6.726-2.604l1.08-0.742l1.178,0.573
	c0.002,0.001,1.253,0.586,2.517,0.586c1.263,0,2.515-0.585,2.526-0.591l1.171-0.555l1.077,0.729
	c1.059,0.724,4.334,2.604,6.726,2.604L36,34.35L36,34.35z"/>
<g>
	<defs>
		<path id="SVGID_5_" d="M36,36c-1,2-2,2-5,2c-1,0-2.624,2.083-6.5,2.083S19,38,18,38c-3,0-4,0-5-2c0,0-2.084,10,0,11s11.5,1,11.5,1
			s9.416,0,11.5-1S36,36,36,36z"/>
	</defs>
	<clipPath id="SVGID_6_">
		<use xlink:href="#SVGID_5_"  overflow="visible"/>
	</clipPath>
	<path clip-path="url(#SVGID_6_)" fill="#222221" d="M34.665,46.576l0.354-0.354l1,1l-0.354,0.354L34.665,46.576z M34.969,44.922
		l0.352-0.354l1,1l-0.354,0.354L34.969,44.922z M36.666,45.223l0.354-0.354l1,1l-0.354,0.354L36.666,45.223z M34.665,43.223
		l0.354-0.354l1,1l-0.354,0.354L34.665,43.223z M36.354,43.535l0.354-0.354l1,1l-0.354,0.354L36.354,43.535z M34.969,41.568
		l0.352-0.354l1,0.999l-0.354,0.354L34.969,41.568z M36.666,41.869l0.354-0.354l1,1l-0.354,0.354L36.666,41.869z M34.665,39.869
		l0.354-0.354l1,1l-0.354,0.354L34.665,39.869z M36.354,40.182l0.354-0.354l1,1l-0.354,0.354L36.354,40.182z M34.969,38.213
		l0.352-0.354l1,1l-0.354,0.354L34.969,38.213z M34.665,36.514l0.354-0.354l1,1l-0.354,0.354L34.665,36.514z M31.311,46.576
		l0.354-0.354l1,1l-0.354,0.354L31.311,46.576z M32.998,46.889l0.355-0.354l1,1l-0.355,0.354L32.998,46.889z M31.613,44.922
		l0.354-0.354l1,1l-0.355,0.354L31.613,44.922z M33.312,45.223l0.352-0.354l1,1l-0.354,0.354L33.312,45.223z M31.311,43.223
		l0.354-0.354l1,1l-0.354,0.354L31.311,43.223z M32.998,43.535l0.355-0.354l1,1l-0.355,0.354L32.998,43.535z M31.613,41.568
		l0.354-0.354l1,0.999l-0.355,0.354L31.613,41.568z M33.312,41.869l0.352-0.354l1,1l-0.354,0.354L33.312,41.869z M31.311,39.869
		l0.354-0.354l1,1l-0.354,0.354L31.311,39.869z M32.998,40.182l0.355-0.354l1,1l-0.355,0.354L32.998,40.182z M31.613,38.213
		l0.354-0.354l1,1l-0.355,0.354L31.613,38.213z M33.312,38.514l0.352-0.354l1,1l-0.354,0.354L33.312,38.514z M28.26,48.275
		l0.354-0.353l1,0.999l-0.354,0.354L28.26,48.275z M27.957,46.576l0.354-0.354l1,1l-0.354,0.354L27.957,46.576z M29.645,46.889
		l0.354-0.354l1,1l-0.354,0.354L29.645,46.889z M28.26,44.922l0.354-0.354l1,1l-0.354,0.354L28.26,44.922z M29.958,45.223
		l0.353-0.354l1,1l-0.354,0.354L29.958,45.223z M27.957,43.223l0.354-0.354l1,1l-0.354,0.354L27.957,43.223z M29.645,43.535
		l0.354-0.354l1,1l-0.354,0.354L29.645,43.535z M28.26,41.568l0.354-0.354l1,0.999l-0.354,0.354L28.26,41.568z M29.958,41.869
		l0.353-0.354l1,1l-0.354,0.354L29.958,41.869z M27.957,39.869l0.354-0.354l1,1l-0.354,0.354L27.957,39.869z M29.645,40.182
		l0.354-0.354l1,1l-0.354,0.354L29.645,40.182z M28.26,38.213l0.354-0.354l1,1l-0.354,0.354L28.26,38.213z M29.958,38.514
		l0.353-0.354l1,1l-0.354,0.354L29.958,38.514z M24.906,48.275l0.354-0.353l1,0.999l-0.355,0.354L24.906,48.275z M24.604,46.576
		l0.354-0.354l1,1l-0.354,0.354L24.604,46.576z M26.291,46.889l0.355-0.354l1,1l-0.355,0.354L26.291,46.889z M24.906,44.922
		l0.354-0.354l1,1l-0.355,0.354L24.906,44.922z M26.604,45.223l0.354-0.354l1,1l-0.354,0.354L26.604,45.223z M24.604,43.223
		l0.354-0.354l1,1l-0.354,0.354L24.604,43.223z M26.291,43.535l0.355-0.354l1,1l-0.355,0.354L26.291,43.535z M24.906,41.568
		l0.354-0.354l1,0.999l-0.355,0.354L24.906,41.568z M26.604,41.869l0.354-0.354l1,1l-0.354,0.354L26.604,41.869z M24.604,39.869
		l0.354-0.354l1,1l-0.354,0.354L24.604,39.869z M26.291,40.182l0.355-0.354l1,1l-0.355,0.354L26.291,40.182z M21.552,48.275
		l0.353-0.353l1,0.999l-0.354,0.354L21.552,48.275z M21.249,46.576l0.354-0.354l1,1l-0.354,0.354L21.249,46.576z M22.937,46.889
		l0.354-0.354l1,1l-0.354,0.354L22.937,46.889z M21.552,44.922l0.353-0.354l1,1l-0.354,0.354L21.552,44.922z M23.25,45.223
		l0.353-0.354l1,1l-0.354,0.354L23.25,45.223z M21.249,43.223l0.354-0.354l1,1l-0.354,0.354L21.249,43.223z M22.937,43.535
		l0.354-0.354l1,1l-0.354,0.354L22.937,43.535z M21.552,41.568l0.353-0.354l1,0.999l-0.354,0.354L21.552,41.568z M23.25,41.869
		l0.353-0.354l1,1l-0.354,0.354L23.25,41.869z M21.249,39.869l0.354-0.354l1,1l-0.354,0.354L21.249,39.869z M22.937,40.182
		l0.354-0.354l1,1l-0.354,0.354L22.937,40.182z M17.895,46.576l0.354-0.354l1,1l-0.354,0.354L17.895,46.576z M19.583,46.889
		l0.354-0.354l1,1l-0.354,0.354L19.583,46.889z M18.198,44.922l0.353-0.354l1,1l-0.354,0.354L18.198,44.922z M19.896,45.223
		l0.353-0.354l1,1l-0.354,0.354L19.896,45.223z M17.895,43.223l0.354-0.354l1,1l-0.354,0.354L17.895,43.223z M19.583,43.535
		l0.354-0.354l1,1l-0.354,0.354L19.583,43.535z M18.198,41.568l0.353-0.354l1,0.999l-0.354,0.354L18.198,41.568z M19.896,41.869
		l0.353-0.354l1,1l-0.354,0.354L19.896,41.869z M17.895,39.869l0.354-0.354l1,1l-0.354,0.354L17.895,39.869z M19.583,40.182
		l0.354-0.354l1,1l-0.354,0.354L19.583,40.182z M18.198,38.213l0.353-0.354l1,1l-0.354,0.354L18.198,38.213z M19.896,38.514
		l0.353-0.354l1,1l-0.354,0.354L19.896,38.514z M14.541,46.576l0.354-0.354l1,1l-0.354,0.354L14.541,46.576z M16.229,46.889
		l0.354-0.354l1,1l-0.354,0.354L16.229,46.889z M14.844,44.922l0.353-0.354l1,1l-0.354,0.354L14.844,44.922z M16.542,45.223
		l0.353-0.354l1,1l-0.354,0.354L16.542,45.223z M14.541,43.223l0.354-0.354l1,1l-0.354,0.354L14.541,43.223z M16.229,43.535
		l0.354-0.354l1,1l-0.354,0.354L16.229,43.535z M14.844,41.568l0.353-0.354l1,0.999l-0.354,0.354L14.844,41.568z M16.542,41.869
		l0.353-0.354l1,1l-0.354,0.354L16.542,41.869z M14.541,39.869l0.354-0.354l1,1l-0.354,0.354L14.541,39.869z M16.229,40.182
		l0.354-0.354l1,1l-0.354,0.354L16.229,40.182z M14.844,38.213l0.353-0.354l1,1l-0.354,0.354L14.844,38.213z M16.542,38.514
		l0.353-0.354l1,1l-0.354,0.354L16.542,38.514z M12.875,46.889l0.354-0.354l1,1l-0.354,0.354L12.875,46.889z M11.49,44.922
		l0.353-0.354l1,1l-0.354,0.354L11.49,44.922z M13.188,45.223l0.353-0.354l1,1l-0.354,0.354L13.188,45.223z M11.187,43.223
		l0.354-0.354l1,1l-0.354,0.354L11.187,43.223z M12.875,43.535l0.354-0.354l1,1l-0.354,0.354L12.875,43.535z M11.49,41.568
		l0.353-0.354l1,0.999l-0.354,0.354L11.49,41.568z M13.188,41.869l0.353-0.354l1,1l-0.354,0.354L13.188,41.869z M11.187,39.869
		l0.354-0.354l1,1l-0.354,0.354L11.187,39.869z M12.875,40.182l0.354-0.354l1,1l-0.354,0.354L12.875,40.182z M11.49,38.213
		l0.353-0.354l1,1l-0.354,0.354L11.49,38.213z M13.188,38.514l0.353-0.354l1,1l-0.354,0.354L13.188,38.514z M12.875,36.826
		l0.354-0.354l1,1l-0.354,0.354L12.875,36.826z"/>
</g>
<path fill="#222221" d="M36,36c-1,2-2,7-5,7s-3-3.578-3-3.578s-1.334,0.661-3.5,0.661s-3.563-0.687-3.563-0.687S21,43,18,43
	s-4-5-5-7c0,0-2.084,10,0,11s11.5,1,11.5,1s9.416,0,11.5-1S36,36,36,36z"/>
<path fill="#222221" d="M0,0c0,0,2.5,15,10.75,15c0,0-4.656-2.469-4.875-8c0.173,1.583,1.74,6.125,6.199,7.75
	c0,0-2.593-1.031-2.949-5.25c1.629,7.032,6.417,5.187,6.75,5.062c-1.917-0.688-5.019-6.342-4.851-10.188
	C12,10.5,16.264,14.708,23.014,15.083c0,0-5.561-3.018-8.515-10.842C16.625,10.708,22.927,14.97,26.625,15
	c-4.333-2.219-5.633-7.455-5.633-7.455s2.005,7.282,8.91,7.188c0,0-4.401-2.644-5.679-6.736c0,0,2.671,6.898,8.902,6.439
	c0,0-3.844-0.812-4.723-7.506c0.719,6.701,6.486,7.777,6.785,7.694C35.164,13.892,32,8.854,32,8.854
	c1.875,0.354,5.125,5.604,5.125,5.604C36.208,9.448,33.406,6.141,32,5c2.667,2.125,7.708,6.417,7.083,12.708
	c1.583-0.875,1.667-9.5-4.356-14.028C38.583,6.458,41,11.542,40.25,16.5c1.875-0.417,2.958-3.458,1.75-8.083
	c1,3.146,1.375,5.292,0,7.917C44.167,15.625,47.697,8.128,47.938,0H0z"/>
<path fill="#222221" d="M5.001,12.016c-1.584,0.156-1.845,3.062-1.845,3.062c-0.781-0.375-1.094-3.5-0.906-5.156
	c-0.364,1.234-0.468,3.582-0.249,4.55c-1-0.333-1.292-2.722-1.177-3.769c-0.312,0.708-0.097,2.802-0.097,2.802
	C0.113,13.376-0.001,12.193,0,11.984V0.422L5.001,12.016z"/>
<path fill="#222221" d="M42.999,11.99c1.584,0.156,1.845,3.062,1.845,3.062c0.781-0.375,1.094-3.5,0.906-5.156
	c0.363,1.234,0.468,3.582,0.249,4.55c1-0.333,1.292-2.722,1.177-3.769c0.312,0.708,0.098,2.802,0.098,2.802
	c0.613-0.129,0.729-1.312,0.729-1.521V0.396L42.999,11.99z"/>
<g>
	<defs>
		<path id="SVGID_7_" d="M24,0L24,0H0v19l5-7c0,0-6-16,11-7c4.161,2.203,5,3,8,3s3.839-0.797,8-3c17-9,11,7,11,7l5,7V0H24z"/>
	</defs>
	<clipPath id="SVGID_8_">
		<use xlink:href="#SVGID_7_"  overflow="visible"/>
	</clipPath>
	<path clip-path="url(#SVGID_8_)" fill="#222221" d="M48.521,19.181h-0.75v-0.112h0.75V19.181z M47.021,19.181h-0.75v-0.112h0.75
		V19.181z M45.521,19.181h-0.75v-0.112h0.75V19.181z M44.021,19.181h-0.75v-0.112h0.75V19.181z M48.521,17.681h-0.75v-0.112h0.75
		V17.681z M47.021,17.681h-0.75v-0.112h0.75V17.681z M45.521,17.681h-0.75v-0.112h0.75V17.681z M44.021,17.681h-0.75v-0.112h0.75
		V17.681z M48.521,16.181h-0.75v-0.112h0.75V16.181z M47.021,16.181h-0.75v-0.112h0.75V16.181z M45.521,16.181h-0.75v-0.112h0.75
		V16.181z M44.021,16.181h-0.75v-0.112h0.75V16.181z M48.521,14.681h-0.75v-0.112h0.75V14.681z M47.021,14.681h-0.75v-0.112h0.75
		V14.681z M45.521,14.681h-0.75v-0.112h0.75V14.681z M44.021,14.681h-0.75v-0.112h0.75V14.681z M48.521,13.181h-0.75v-0.112h0.75
		V13.181z M47.021,13.181h-0.75v-0.112h0.75V13.181z M45.521,13.181h-0.75v-0.112h0.75V13.181z M44.021,13.181h-0.75v-0.112h0.75
		V13.181z M48.521,11.681h-0.75v-0.112h0.75V11.681z M47.021,11.681h-0.75v-0.112h0.75V11.681z M45.521,11.681h-0.75v-0.112h0.75
		V11.681z M44.021,11.681h-0.75v-0.112h0.75V11.681z M48.521,10.181h-0.75v-0.112h0.75V10.181z M47.021,10.181h-0.75v-0.112h0.75
		V10.181z M45.521,10.181h-0.75v-0.112h0.75V10.181z M44.021,10.181h-0.75v-0.112h0.75V10.181z M48.521,8.681h-0.75V8.569h0.75
		V8.681z M47.021,8.681h-0.75V8.569h0.75V8.681z M45.521,8.681h-0.75V8.569h0.75V8.681z M44.021,8.681h-0.75V8.569h0.75V8.681z
		 M48.521,7.181h-0.75V7.069h0.75V7.181z M47.021,7.181h-0.75V7.069h0.75V7.181z M45.521,7.181h-0.75V7.069h0.75V7.181z
		 M44.021,7.181h-0.75V7.069h0.75V7.181z M48.521,5.681h-0.75V5.569h0.75V5.681z M47.021,5.681h-0.75V5.569h0.75V5.681z
		 M45.521,5.681h-0.75V5.569h0.75V5.681z M44.021,5.681h-0.75V5.569h0.75V5.681z M48.521,4.181h-0.75V4.069h0.75V4.181z
		 M47.021,4.181h-0.75V4.069h0.75V4.181z M45.521,4.181h-0.75V4.069h0.75V4.181z M44.021,4.181h-0.75V4.069h0.75V4.181z
		 M48.521,2.681h-0.75V2.569h0.75V2.681z M47.021,2.681h-0.75V2.569h0.75V2.681z M45.521,2.681h-0.75V2.569h0.75V2.681z
		 M44.021,2.681h-0.75V2.569h0.75V2.681z M47.786,18.431h-0.75v-0.112h0.75V18.431z M46.286,18.431h-0.75v-0.112h0.75V18.431z
		 M44.786,18.431h-0.75v-0.112h0.75V18.431z M47.786,16.931h-0.75v-0.112h0.75V16.931z M46.286,16.931h-0.75v-0.112h0.75V16.931z
		 M44.786,16.931h-0.75v-0.112h0.75V16.931z M47.786,15.431h-0.75v-0.112h0.75V15.431z M46.286,15.431h-0.75v-0.112h0.75V15.431z
		 M44.786,15.431h-0.75v-0.112h0.75V15.431z M47.786,13.931h-0.75v-0.112h0.75V13.931z M46.286,13.931h-0.75v-0.112h0.75V13.931z
		 M44.786,13.931h-0.75v-0.112h0.75V13.931z M47.786,12.431h-0.75v-0.112h0.75V12.431z M46.286,12.431h-0.75v-0.112h0.75V12.431z
		 M44.786,12.431h-0.75v-0.112h0.75V12.431z M47.786,10.931h-0.75v-0.112h0.75V10.931z M46.286,10.931h-0.75v-0.112h0.75V10.931z
		 M44.786,10.931h-0.75v-0.112h0.75V10.931z M47.786,9.431h-0.75V9.319h0.75V9.431z M46.286,9.431h-0.75V9.319h0.75V9.431z
		 M44.786,9.431h-0.75V9.319h0.75V9.431z M47.786,7.931h-0.75V7.819h0.75V7.931z M46.286,7.931h-0.75V7.819h0.75V7.931z
		 M44.786,7.931h-0.75V7.819h0.75V7.931z M47.786,6.431h-0.75V6.319h0.75V6.431z M46.286,6.431h-0.75V6.319h0.75V6.431z
		 M44.786,6.431h-0.75V6.319h0.75V6.431z M47.786,4.931h-0.75V4.819h0.75V4.931z M46.286,4.931h-0.75V4.819h0.75V4.931z
		 M44.786,4.931h-0.75V4.819h0.75V4.931z M47.786,3.431h-0.75V3.319h0.75V3.431z M46.286,3.431h-0.75V3.319h0.75V3.431z
		 M44.786,3.431h-0.75V3.319h0.75V3.431z M48.521,1.181h-0.75V1.069h0.75V1.181z M47.021,1.181h-0.75V1.069h0.75V1.181z
		 M45.521,1.181h-0.75V1.069h0.75V1.181z M44.021,1.181h-0.75V1.069h0.75V1.181z M47.786,1.931h-0.75V1.819h0.75V1.931z
		 M46.286,1.931h-0.75V1.819h0.75V1.931z M44.786,1.931h-0.75V1.819h0.75V1.931z M47.786,0.431h-0.75V0.319h0.75V0.431z
		 M46.286,0.431h-0.75V0.319h0.75V0.431z M44.786,0.431h-0.75V0.319h0.75V0.431z M41.021,19.181h-0.75v-0.112h0.75V19.181z
		 M39.521,19.181h-0.75v-0.112h0.75V19.181z M38.021,19.181h-0.75v-0.112h0.75V19.181z M36.521,19.181h-0.75v-0.112h0.75V19.181z
		 M35.021,19.181h-0.75v-0.112h0.75V19.181z M33.521,19.181h-0.749v-0.112h0.749V19.181z M32.021,19.181h-0.75v-0.112h0.75V19.181z
		 M30.521,19.181h-0.75v-0.112h0.75V19.181z M29.021,19.181h-0.75v-0.112h0.75V19.181z M27.521,19.181h-0.75v-0.112h0.75V19.181z
		 M26.021,19.181h-0.75v-0.112h0.75V19.181z M24.521,19.181h-0.75v-0.112h0.75V19.181z M23.021,19.181h-0.75v-0.112h0.75V19.181z
		 M21.521,19.181h-0.75v-0.112h0.75V19.181z M20.021,19.181h-0.75v-0.112h0.75V19.181z M18.521,19.181h-0.75v-0.112h0.75V19.181z
		 M17.021,19.181h-0.75v-0.112h0.75V19.181z M41.021,17.681h-0.75v-0.112h0.75V17.681z M39.521,17.681h-0.75v-0.112h0.75V17.681z
		 M38.021,17.681h-0.75v-0.112h0.75V17.681z M36.521,17.681h-0.75v-0.112h0.75V17.681z M35.021,17.681h-0.75v-0.112h0.75V17.681z
		 M33.521,17.681h-0.749v-0.112h0.749V17.681z M32.021,17.681h-0.75v-0.112h0.75V17.681z M30.521,17.681h-0.75v-0.112h0.75V17.681z
		 M29.021,17.681h-0.75v-0.112h0.75V17.681z M27.521,17.681h-0.75v-0.112h0.75V17.681z M26.021,17.681h-0.75v-0.112h0.75V17.681z
		 M24.521,17.681h-0.75v-0.112h0.75V17.681z M23.021,17.681h-0.75v-0.112h0.75V17.681z M21.521,17.681h-0.75v-0.112h0.75V17.681z
		 M20.021,17.681h-0.75v-0.112h0.75V17.681z M18.521,17.681h-0.75v-0.112h0.75V17.681z M17.021,17.681h-0.75v-0.112h0.75V17.681z
		 M41.021,16.181h-0.75v-0.112h0.75V16.181z M39.521,16.181h-0.75v-0.112h0.75V16.181z M38.021,16.181h-0.75v-0.112h0.75V16.181z
		 M36.521,16.181h-0.75v-0.112h0.75V16.181z M35.021,16.181h-0.75v-0.112h0.75V16.181z M33.521,16.181h-0.749v-0.112h0.749V16.181z
		 M32.021,16.181h-0.75v-0.112h0.75V16.181z M30.521,16.181h-0.75v-0.112h0.75V16.181z M29.021,16.181h-0.75v-0.112h0.75V16.181z
		 M27.521,16.181h-0.75v-0.112h0.75V16.181z M26.021,16.181h-0.75v-0.112h0.75V16.181z M24.521,16.181h-0.75v-0.112h0.75V16.181z
		 M23.021,16.181h-0.75v-0.112h0.75V16.181z M21.521,16.181h-0.75v-0.112h0.75V16.181z M20.021,16.181h-0.75v-0.112h0.75V16.181z
		 M18.521,16.181h-0.75v-0.112h0.75V16.181z M17.021,16.181h-0.75v-0.112h0.75V16.181z M41.021,14.681h-0.75v-0.112h0.75V14.681z
		 M39.521,14.681h-0.75v-0.112h0.75V14.681z M38.021,14.681h-0.75v-0.112h0.75V14.681z M36.521,14.681h-0.75v-0.112h0.75V14.681z
		 M35.021,14.681h-0.75v-0.112h0.75V14.681z M33.521,14.681h-0.749v-0.112h0.749V14.681z M32.021,14.681h-0.75v-0.112h0.75V14.681z
		 M30.521,14.681h-0.75v-0.112h0.75V14.681z M29.021,14.681h-0.75v-0.112h0.75V14.681z M27.521,14.681h-0.75v-0.112h0.75V14.681z
		 M26.021,14.681h-0.75v-0.112h0.75V14.681z M24.521,14.681h-0.75v-0.112h0.75V14.681z M23.021,14.681h-0.75v-0.112h0.75V14.681z
		 M21.521,14.681h-0.75v-0.112h0.75V14.681z M20.021,14.681h-0.75v-0.112h0.75V14.681z M18.521,14.681h-0.75v-0.112h0.75V14.681z
		 M17.021,14.681h-0.75v-0.112h0.75V14.681z M41.021,13.181h-0.75v-0.112h0.75V13.181z M39.521,13.181h-0.75v-0.112h0.75V13.181z
		 M38.021,13.181h-0.75v-0.112h0.75V13.181z M36.521,13.181h-0.75v-0.112h0.75V13.181z M35.021,13.181h-0.75v-0.112h0.75V13.181z
		 M33.521,13.181h-0.749v-0.112h0.749V13.181z M32.021,13.181h-0.75v-0.112h0.75V13.181z M30.521,13.181h-0.75v-0.112h0.75V13.181z
		 M29.021,13.181h-0.75v-0.112h0.75V13.181z M27.521,13.181h-0.75v-0.112h0.75V13.181z M26.021,13.181h-0.75v-0.112h0.75V13.181z
		 M24.521,13.181h-0.75v-0.112h0.75V13.181z M23.021,13.181h-0.75v-0.112h0.75V13.181z M21.521,13.181h-0.75v-0.112h0.75V13.181z
		 M20.021,13.181h-0.75v-0.112h0.75V13.181z M18.521,13.181h-0.75v-0.112h0.75V13.181z M17.021,13.181h-0.75v-0.112h0.75V13.181z
		 M41.021,11.681h-0.75v-0.112h0.75V11.681z M39.521,11.681h-0.75v-0.112h0.75V11.681z M38.021,11.681h-0.75v-0.112h0.75V11.681z
		 M36.521,11.681h-0.75v-0.112h0.75V11.681z M35.021,11.681h-0.75v-0.112h0.75V11.681z M33.521,11.681h-0.749v-0.112h0.749V11.681z
		 M32.021,11.681h-0.75v-0.112h0.75V11.681z M30.521,11.681h-0.75v-0.112h0.75V11.681z M29.021,11.681h-0.75v-0.112h0.75V11.681z
		 M27.521,11.681h-0.75v-0.112h0.75V11.681z M26.021,11.681h-0.75v-0.112h0.75V11.681z M24.521,11.681h-0.75v-0.112h0.75V11.681z
		 M23.021,11.681h-0.75v-0.112h0.75V11.681z M21.521,11.681h-0.75v-0.112h0.75V11.681z M20.021,11.681h-0.75v-0.112h0.75V11.681z
		 M18.521,11.681h-0.75v-0.112h0.75V11.681z M17.021,11.681h-0.75v-0.112h0.75V11.681z M41.021,10.181h-0.75v-0.112h0.75V10.181z
		 M39.521,10.181h-0.75v-0.112h0.75V10.181z M38.021,10.181h-0.75v-0.112h0.75V10.181z M36.521,10.181h-0.75v-0.112h0.75V10.181z
		 M35.021,10.181h-0.75v-0.112h0.75V10.181z M33.521,10.181h-0.749v-0.112h0.749V10.181z M32.021,10.181h-0.75v-0.112h0.75V10.181z
		 M30.521,10.181h-0.75v-0.112h0.75V10.181z M29.021,10.181h-0.75v-0.112h0.75V10.181z M27.521,10.181h-0.75v-0.112h0.75V10.181z
		 M26.021,10.181h-0.75v-0.112h0.75V10.181z M24.521,10.181h-0.75v-0.112h0.75V10.181z M23.021,10.181h-0.75v-0.112h0.75V10.181z
		 M21.521,10.181h-0.75v-0.112h0.75V10.181z M20.021,10.181h-0.75v-0.112h0.75V10.181z M18.521,10.181h-0.75v-0.112h0.75V10.181z
		 M17.021,10.181h-0.75v-0.112h0.75V10.181z M41.021,8.681h-0.75V8.569h0.75V8.681z M39.521,8.681h-0.75V8.569h0.75V8.681z
		 M38.021,8.681h-0.75V8.569h0.75V8.681z M36.521,8.681h-0.75V8.569h0.75V8.681z M35.021,8.681h-0.75V8.569h0.75V8.681z
		 M33.521,8.681h-0.749V8.569h0.749V8.681z M32.021,8.681h-0.75V8.569h0.75V8.681z M30.521,8.681h-0.75V8.569h0.75V8.681z
		 M29.021,8.681h-0.75V8.569h0.75V8.681z M27.521,8.681h-0.75V8.569h0.75V8.681z M26.021,8.681h-0.75V8.569h0.75V8.681z
		 M24.521,8.681h-0.75V8.569h0.75V8.681z M23.021,8.681h-0.75V8.569h0.75V8.681z M21.521,8.681h-0.75V8.569h0.75V8.681z
		 M20.021,8.681h-0.75V8.569h0.75V8.681z M18.521,8.681h-0.75V8.569h0.75V8.681z M17.021,8.681h-0.75V8.569h0.75V8.681z
		 M41.021,7.181h-0.75V7.069h0.75V7.181z M39.521,7.181h-0.75V7.069h0.75V7.181z M38.021,7.181h-0.75V7.069h0.75V7.181z
		 M36.521,7.181h-0.75V7.069h0.75V7.181z M35.021,7.181h-0.75V7.069h0.75V7.181z M33.521,7.181h-0.749V7.069h0.749V7.181z
		 M32.021,7.181h-0.75V7.069h0.75V7.181z M30.521,7.181h-0.75V7.069h0.75V7.181z M29.021,7.181h-0.75V7.069h0.75V7.181z
		 M27.521,7.181h-0.75V7.069h0.75V7.181z M26.021,7.181h-0.75V7.069h0.75V7.181z M24.521,7.181h-0.75V7.069h0.75V7.181z
		 M23.021,7.181h-0.75V7.069h0.75V7.181z M21.521,7.181h-0.75V7.069h0.75V7.181z M20.021,7.181h-0.75V7.069h0.75V7.181z
		 M18.521,7.181h-0.75V7.069h0.75V7.181z M17.021,7.181h-0.75V7.069h0.75V7.181z M41.021,5.681h-0.75V5.569h0.75V5.681z
		 M39.521,5.681h-0.75V5.569h0.75V5.681z M38.021,5.681h-0.75V5.569h0.75V5.681z M36.521,5.681h-0.75V5.569h0.75V5.681z
		 M35.021,5.681h-0.75V5.569h0.75V5.681z M33.521,5.681h-0.749V5.569h0.749V5.681z M32.021,5.681h-0.75V5.569h0.75V5.681z
		 M30.521,5.681h-0.75V5.569h0.75V5.681z M29.021,5.681h-0.75V5.569h0.75V5.681z M27.521,5.681h-0.75V5.569h0.75V5.681z
		 M26.021,5.681h-0.75V5.569h0.75V5.681z M24.521,5.681h-0.75V5.569h0.75V5.681z M23.021,5.681h-0.75V5.569h0.75V5.681z
		 M21.521,5.681h-0.75V5.569h0.75V5.681z M20.021,5.681h-0.75V5.569h0.75V5.681z M18.521,5.681h-0.75V5.569h0.75V5.681z
		 M17.021,5.681h-0.75V5.569h0.75V5.681z M41.021,4.181h-0.75V4.069h0.75V4.181z M39.521,4.181h-0.75V4.069h0.75V4.181z
		 M38.021,4.181h-0.75V4.069h0.75V4.181z M36.521,4.181h-0.75V4.069h0.75V4.181z M35.021,4.181h-0.75V4.069h0.75V4.181z
		 M33.521,4.181h-0.749V4.069h0.749V4.181z M32.021,4.181h-0.75V4.069h0.75V4.181z M30.521,4.181h-0.75V4.069h0.75V4.181z
		 M29.021,4.181h-0.75V4.069h0.75V4.181z M27.521,4.181h-0.75V4.069h0.75V4.181z M26.021,4.181h-0.75V4.069h0.75V4.181z
		 M24.521,4.181h-0.75V4.069h0.75V4.181z M23.021,4.181h-0.75V4.069h0.75V4.181z M21.521,4.181h-0.75V4.069h0.75V4.181z
		 M20.021,4.181h-0.75V4.069h0.75V4.181z M18.521,4.181h-0.75V4.069h0.75V4.181z M17.021,4.181h-0.75V4.069h0.75V4.181z
		 M41.021,2.681h-0.75V2.569h0.75V2.681z M39.521,2.681h-0.75V2.569h0.75V2.681z M38.021,2.681h-0.75V2.569h0.75V2.681z
		 M36.521,2.681h-0.75V2.569h0.75V2.681z M35.021,2.681h-0.75V2.569h0.75V2.681z M33.521,2.681h-0.749V2.569h0.749V2.681z
		 M32.021,2.681h-0.75V2.569h0.75V2.681z M30.521,2.681h-0.75V2.569h0.75V2.681z M29.021,2.681h-0.75V2.569h0.75V2.681z
		 M27.521,2.681h-0.75V2.569h0.75V2.681z M26.021,2.681h-0.75V2.569h0.75V2.681z M24.521,2.681h-0.75V2.569h0.75V2.681z
		 M23.021,2.681h-0.75V2.569h0.75V2.681z M21.521,2.681h-0.75V2.569h0.75V2.681z M20.021,2.681h-0.75V2.569h0.75V2.681z
		 M18.521,2.681h-0.75V2.569h0.75V2.681z M17.021,2.681h-0.75V2.569h0.75V2.681z M41.786,18.431h-0.75v-0.112h0.75V18.431z
		 M40.286,18.431h-0.75v-0.112h0.75V18.431z M38.786,18.431h-0.75v-0.112h0.75V18.431z M37.286,18.431h-0.75v-0.112h0.75V18.431z
		 M35.786,18.431h-0.75v-0.112h0.75V18.431z M34.286,18.431h-0.75v-0.112h0.75V18.431z M32.786,18.431h-0.75v-0.112h0.75V18.431z
		 M31.286,18.431h-0.75v-0.112h0.75V18.431z M29.786,18.431h-0.75v-0.112h0.75V18.431z M28.286,18.431h-0.75v-0.112h0.75V18.431z
		 M26.786,18.431h-0.75v-0.112h0.75V18.431z M25.286,18.431h-0.75v-0.112h0.75V18.431z M23.786,18.431h-0.75v-0.112h0.75V18.431z
		 M22.286,18.431h-0.75v-0.112h0.75V18.431z M20.786,18.431h-0.75v-0.112h0.75V18.431z M19.286,18.431h-0.75v-0.112h0.75V18.431z
		 M17.786,18.431h-0.75v-0.112h0.75V18.431z M41.786,16.931h-0.75v-0.112h0.75V16.931z M40.286,16.931h-0.75v-0.112h0.75V16.931z
		 M38.786,16.931h-0.75v-0.112h0.75V16.931z M37.286,16.931h-0.75v-0.112h0.75V16.931z M35.786,16.931h-0.75v-0.112h0.75V16.931z
		 M34.286,16.931h-0.75v-0.112h0.75V16.931z M32.786,16.931h-0.75v-0.112h0.75V16.931z M31.286,16.931h-0.75v-0.112h0.75V16.931z
		 M29.786,16.931h-0.75v-0.112h0.75V16.931z M28.286,16.931h-0.75v-0.112h0.75V16.931z M26.786,16.931h-0.75v-0.112h0.75V16.931z
		 M25.286,16.931h-0.75v-0.112h0.75V16.931z M23.786,16.931h-0.75v-0.112h0.75V16.931z M22.286,16.931h-0.75v-0.112h0.75V16.931z
		 M20.786,16.931h-0.75v-0.112h0.75V16.931z M19.286,16.931h-0.75v-0.112h0.75V16.931z M17.786,16.931h-0.75v-0.112h0.75V16.931z
		 M41.786,15.431h-0.75v-0.112h0.75V15.431z M40.286,15.431h-0.75v-0.112h0.75V15.431z M38.786,15.431h-0.75v-0.112h0.75V15.431z
		 M37.286,15.431h-0.75v-0.112h0.75V15.431z M35.786,15.431h-0.75v-0.112h0.75V15.431z M34.286,15.431h-0.75v-0.112h0.75V15.431z
		 M32.786,15.431h-0.75v-0.112h0.75V15.431z M31.286,15.431h-0.75v-0.112h0.75V15.431z M29.786,15.431h-0.75v-0.112h0.75V15.431z
		 M28.286,15.431h-0.75v-0.112h0.75V15.431z M26.786,15.431h-0.75v-0.112h0.75V15.431z M25.286,15.431h-0.75v-0.112h0.75V15.431z
		 M23.786,15.431h-0.75v-0.112h0.75V15.431z M22.286,15.431h-0.75v-0.112h0.75V15.431z M20.786,15.431h-0.75v-0.112h0.75V15.431z
		 M19.286,15.431h-0.75v-0.112h0.75V15.431z M17.786,15.431h-0.75v-0.112h0.75V15.431z M41.786,13.931h-0.75v-0.112h0.75V13.931z
		 M40.286,13.931h-0.75v-0.112h0.75V13.931z M38.786,13.931h-0.75v-0.112h0.75V13.931z M37.286,13.931h-0.75v-0.112h0.75V13.931z
		 M35.786,13.931h-0.75v-0.112h0.75V13.931z M34.286,13.931h-0.75v-0.112h0.75V13.931z M32.786,13.931h-0.75v-0.112h0.75V13.931z
		 M31.286,13.931h-0.75v-0.112h0.75V13.931z M29.786,13.931h-0.75v-0.112h0.75V13.931z M28.286,13.931h-0.75v-0.112h0.75V13.931z
		 M26.786,13.931h-0.75v-0.112h0.75V13.931z M25.286,13.931h-0.75v-0.112h0.75V13.931z M23.786,13.931h-0.75v-0.112h0.75V13.931z
		 M22.286,13.931h-0.75v-0.112h0.75V13.931z M20.786,13.931h-0.75v-0.112h0.75V13.931z M19.286,13.931h-0.75v-0.112h0.75V13.931z
		 M17.786,13.931h-0.75v-0.112h0.75V13.931z M41.786,12.431h-0.75v-0.112h0.75V12.431z M40.286,12.431h-0.75v-0.112h0.75V12.431z
		 M38.786,12.431h-0.75v-0.112h0.75V12.431z M37.286,12.431h-0.75v-0.112h0.75V12.431z M35.786,12.431h-0.75v-0.112h0.75V12.431z
		 M34.286,12.431h-0.75v-0.112h0.75V12.431z M32.786,12.431h-0.75v-0.112h0.75V12.431z M31.286,12.431h-0.75v-0.112h0.75V12.431z
		 M29.786,12.431h-0.75v-0.112h0.75V12.431z M28.286,12.431h-0.75v-0.112h0.75V12.431z M26.786,12.431h-0.75v-0.112h0.75V12.431z
		 M25.286,12.431h-0.75v-0.112h0.75V12.431z M23.786,12.431h-0.75v-0.112h0.75V12.431z M22.286,12.431h-0.75v-0.112h0.75V12.431z
		 M20.786,12.431h-0.75v-0.112h0.75V12.431z M19.286,12.431h-0.75v-0.112h0.75V12.431z M17.786,12.431h-0.75v-0.112h0.75V12.431z
		 M41.786,10.931h-0.75v-0.112h0.75V10.931z M40.286,10.931h-0.75v-0.112h0.75V10.931z M38.786,10.931h-0.75v-0.112h0.75V10.931z
		 M37.286,10.931h-0.75v-0.112h0.75V10.931z M35.786,10.931h-0.75v-0.112h0.75V10.931z M34.286,10.931h-0.75v-0.112h0.75V10.931z
		 M32.786,10.931h-0.75v-0.112h0.75V10.931z M31.286,10.931h-0.75v-0.112h0.75V10.931z M29.786,10.931h-0.75v-0.112h0.75V10.931z
		 M28.286,10.931h-0.75v-0.112h0.75V10.931z M26.786,10.931h-0.75v-0.112h0.75V10.931z M25.286,10.931h-0.75v-0.112h0.75V10.931z
		 M23.786,10.931h-0.75v-0.112h0.75V10.931z M22.286,10.931h-0.75v-0.112h0.75V10.931z M20.786,10.931h-0.75v-0.112h0.75V10.931z
		 M19.286,10.931h-0.75v-0.112h0.75V10.931z M17.786,10.931h-0.75v-0.112h0.75V10.931z M41.786,9.431h-0.75V9.319h0.75V9.431z
		 M40.286,9.431h-0.75V9.319h0.75V9.431z M38.786,9.431h-0.75V9.319h0.75V9.431z M37.286,9.431h-0.75V9.319h0.75V9.431z
		 M35.786,9.431h-0.75V9.319h0.75V9.431z M34.286,9.431h-0.75V9.319h0.75V9.431z M32.786,9.431h-0.75V9.319h0.75V9.431z
		 M31.286,9.431h-0.75V9.319h0.75V9.431z M29.786,9.431h-0.75V9.319h0.75V9.431z M28.286,9.431h-0.75V9.319h0.75V9.431z
		 M26.786,9.431h-0.75V9.319h0.75V9.431z M25.286,9.431h-0.75V9.319h0.75V9.431z M23.786,9.431h-0.75V9.319h0.75V9.431z
		 M22.286,9.431h-0.75V9.319h0.75V9.431z M20.786,9.431h-0.75V9.319h0.75V9.431z M19.286,9.431h-0.75V9.319h0.75V9.431z
		 M17.786,9.431h-0.75V9.319h0.75V9.431z M41.786,7.931h-0.75V7.819h0.75V7.931z M40.286,7.931h-0.75V7.819h0.75V7.931z
		 M38.786,7.931h-0.75V7.819h0.75V7.931z M37.286,7.931h-0.75V7.819h0.75V7.931z M35.786,7.931h-0.75V7.819h0.75V7.931z
		 M34.286,7.931h-0.75V7.819h0.75V7.931z M32.786,7.931h-0.75V7.819h0.75V7.931z M31.286,7.931h-0.75V7.819h0.75V7.931z
		 M29.786,7.931h-0.75V7.819h0.75V7.931z M28.286,7.931h-0.75V7.819h0.75V7.931z M26.786,7.931h-0.75V7.819h0.75V7.931z
		 M25.286,7.931h-0.75V7.819h0.75V7.931z M23.786,7.931h-0.75V7.819h0.75V7.931z M22.286,7.931h-0.75V7.819h0.75V7.931z
		 M20.786,7.931h-0.75V7.819h0.75V7.931z M19.286,7.931h-0.75V7.819h0.75V7.931z M17.786,7.931h-0.75V7.819h0.75V7.931z
		 M41.786,6.431h-0.75V6.319h0.75V6.431z M40.286,6.431h-0.75V6.319h0.75V6.431z M38.786,6.431h-0.75V6.319h0.75V6.431z
		 M37.286,6.431h-0.75V6.319h0.75V6.431z M35.786,6.431h-0.75V6.319h0.75V6.431z M34.286,6.431h-0.75V6.319h0.75V6.431z
		 M32.786,6.431h-0.75V6.319h0.75V6.431z M31.286,6.431h-0.75V6.319h0.75V6.431z M29.786,6.431h-0.75V6.319h0.75V6.431z
		 M28.286,6.431h-0.75V6.319h0.75V6.431z M26.786,6.431h-0.75V6.319h0.75V6.431z M25.286,6.431h-0.75V6.319h0.75V6.431z
		 M23.786,6.431h-0.75V6.319h0.75V6.431z M22.286,6.431h-0.75V6.319h0.75V6.431z M20.786,6.431h-0.75V6.319h0.75V6.431z
		 M19.286,6.431h-0.75V6.319h0.75V6.431z M17.786,6.431h-0.75V6.319h0.75V6.431z M41.786,4.931h-0.75V4.819h0.75V4.931z
		 M40.286,4.931h-0.75V4.819h0.75V4.931z M38.786,4.931h-0.75V4.819h0.75V4.931z M37.286,4.931h-0.75V4.819h0.75V4.931z
		 M35.786,4.931h-0.75V4.819h0.75V4.931z M34.286,4.931h-0.75V4.819h0.75V4.931z M32.786,4.931h-0.75V4.819h0.75V4.931z
		 M31.286,4.931h-0.75V4.819h0.75V4.931z M29.786,4.931h-0.75V4.819h0.75V4.931z M28.286,4.931h-0.75V4.819h0.75V4.931z
		 M26.786,4.931h-0.75V4.819h0.75V4.931z M25.286,4.931h-0.75V4.819h0.75V4.931z M23.786,4.931h-0.75V4.819h0.75V4.931z
		 M22.286,4.931h-0.75V4.819h0.75V4.931z M20.786,4.931h-0.75V4.819h0.75V4.931z M19.286,4.931h-0.75V4.819h0.75V4.931z
		 M17.786,4.931h-0.75V4.819h0.75V4.931z M41.786,3.431h-0.75V3.319h0.75V3.431z M40.286,3.431h-0.75V3.319h0.75V3.431z
		 M38.786,3.431h-0.75V3.319h0.75V3.431z M37.286,3.431h-0.75V3.319h0.75V3.431z M35.786,3.431h-0.75V3.319h0.75V3.431z
		 M34.286,3.431h-0.75V3.319h0.75V3.431z M32.786,3.431h-0.75V3.319h0.75V3.431z M31.286,3.431h-0.75V3.319h0.75V3.431z
		 M29.786,3.431h-0.75V3.319h0.75V3.431z M28.286,3.431h-0.75V3.319h0.75V3.431z M26.786,3.431h-0.75V3.319h0.75V3.431z
		 M25.286,3.431h-0.75V3.319h0.75V3.431z M23.786,3.431h-0.75V3.319h0.75V3.431z M22.286,3.431h-0.75V3.319h0.75V3.431z
		 M20.786,3.431h-0.75V3.319h0.75V3.431z M19.286,3.431h-0.75V3.319h0.75V3.431z M17.786,3.431h-0.75V3.319h0.75V3.431z
		 M41.771,19.069L41.771,19.069l-0.001,0.112h0.001h0.75v-0.112H41.771z M41.771,17.569L41.771,17.569l-0.001,0.112h0.001h0.75
		v-0.112H41.771z M41.771,16.069L41.771,16.069l-0.001,0.112h0.001h0.75v-0.112H41.771z M41.771,14.569L41.771,14.569l-0.001,0.112
		h0.001h0.75v-0.112H41.771z M41.771,13.069L41.771,13.069l-0.001,0.112h0.001h0.75v-0.112H41.771z M41.771,11.569L41.771,11.569
		l-0.001,0.112h0.001h0.75v-0.112H41.771z M41.771,10.069L41.771,10.069l-0.001,0.112h0.001h0.75v-0.112H41.771z M41.771,8.569
		L41.771,8.569l-0.001,0.112h0.001h0.75V8.569H41.771z M41.771,7.069L41.771,7.069l-0.001,0.112h0.001h0.75V7.069H41.771z
		 M41.771,5.569L41.771,5.569l-0.001,0.112h0.001h0.75V5.569H41.771z M41.771,4.069L41.771,4.069l-0.001,0.112h0.001h0.75V4.069
		H41.771z M41.771,2.569L41.771,2.569l-0.001,0.112h0.001h0.75V2.569H41.771z M41.771,1.069L41.771,1.069l-0.001,0.112h0.001h0.75
		V1.069H41.771z M41.021,1.181h-0.75V1.069h0.75V1.181z M39.521,1.181h-0.75V1.069h0.75V1.181z M38.021,1.181h-0.75V1.069h0.75
		V1.181z M36.521,1.181h-0.75V1.069h0.75V1.181z M35.021,1.181h-0.75V1.069h0.75V1.181z M33.521,1.181h-0.749V1.069h0.749V1.181z
		 M32.021,1.181h-0.75V1.069h0.75V1.181z M30.521,1.181h-0.75V1.069h0.75V1.181z M29.021,1.181h-0.75V1.069h0.75V1.181z
		 M27.521,1.181h-0.75V1.069h0.75V1.181z M26.021,1.181h-0.75V1.069h0.75V1.181z M24.521,1.181h-0.75V1.069h0.75V1.181z
		 M23.021,1.181h-0.75V1.069h0.75V1.181z M21.521,1.181h-0.75V1.069h0.75V1.181z M20.021,1.181h-0.75V1.069h0.75V1.181z
		 M18.521,1.181h-0.75V1.069h0.75V1.181z M17.021,1.181h-0.75V1.069h0.75V1.181z M41.786,1.931h-0.75V1.819h0.75V1.931z
		 M40.286,1.931h-0.75V1.819h0.75V1.931z M38.786,1.931h-0.75V1.819h0.75V1.931z M37.286,1.931h-0.75V1.819h0.75V1.931z
		 M35.786,1.931h-0.75V1.819h0.75V1.931z M34.286,1.931h-0.75V1.819h0.75V1.931z M32.786,1.931h-0.75V1.819h0.75V1.931z
		 M31.286,1.931h-0.75V1.819h0.75V1.931z M29.786,1.931h-0.75V1.819h0.75V1.931z M28.286,1.931h-0.75V1.819h0.75V1.931z
		 M26.786,1.931h-0.75V1.819h0.75V1.931z M25.286,1.931h-0.75V1.819h0.75V1.931z M23.786,1.931h-0.75V1.819h0.75V1.931z
		 M22.286,1.931h-0.75V1.819h0.75V1.931z M20.786,1.931h-0.75V1.819h0.75V1.931z M19.286,1.931h-0.75V1.819h0.75V1.931z
		 M17.786,1.931h-0.75V1.819h0.75V1.931z M42.536,18.319v0.112h0.75v-0.112H42.536z M42.536,16.819v0.112h0.75v-0.112H42.536z
		 M42.536,15.319v0.112h0.75v-0.112H42.536z M42.536,13.819v0.112h0.75v-0.112H42.536z M42.536,12.319v0.112h0.75v-0.112H42.536z
		 M42.536,10.819v0.112h0.75v-0.112H42.536z M42.536,9.319v0.112h0.75V9.319H42.536z M42.536,7.819v0.112h0.75V7.819H42.536z
		 M42.536,6.319v0.112h0.75V6.319H42.536z M42.536,4.819v0.112h0.75V4.819H42.536z M42.536,3.319v0.112h0.75V3.319H42.536z
		 M42.536,1.819v0.112h0.75V1.819H42.536z M42.536,0.319v0.112h0.75V0.319H42.536z M41.786,0.431h-0.75V0.319h0.75V0.431z
		 M40.286,0.431h-0.75V0.319h0.75V0.431z M38.786,0.431h-0.75V0.319h0.75V0.431z M37.286,0.431h-0.75V0.319h0.75V0.431z
		 M35.786,0.431h-0.75V0.319h0.75V0.431z M34.286,0.431h-0.75V0.319h0.75V0.431z M32.786,0.431h-0.75V0.319h0.75V0.431z
		 M31.286,0.431h-0.75V0.319h0.75V0.431z M29.786,0.431h-0.75V0.319h0.75V0.431z M28.286,0.431h-0.75V0.319h0.75V0.431z
		 M26.786,0.431h-0.75V0.319h0.75V0.431z M25.286,0.431h-0.75V0.319h0.75V0.431z M23.786,0.431h-0.75V0.319h0.75V0.431z
		 M22.286,0.431h-0.75V0.319h0.75V0.431z M20.786,0.431h-0.75V0.319h0.75V0.431z M19.286,0.431h-0.75V0.319h0.75V0.431z
		 M17.786,0.431h-0.75V0.319h0.75V0.431z M14.021,19.181h-0.75v-0.112h0.75V19.181z M12.521,19.181h-0.75v-0.112h0.75V19.181z
		 M11.021,19.181h-0.75v-0.112h0.75V19.181z M9.521,19.181h-0.75v-0.112h0.75V19.181z M8.021,19.181h-0.75v-0.112h0.75V19.181z
		 M6.521,19.181h-0.75v-0.112h0.75V19.181z M5.021,19.181h-0.75v-0.112h0.75V19.181z M3.521,19.181h-0.75v-0.112h0.75V19.181z
		 M2.021,19.181h-0.75v-0.112h0.75V19.181z M0.521,19.181h-0.75v-0.112h0.75V19.181z M14.021,17.681h-0.75v-0.112h0.75V17.681z
		 M12.521,17.681h-0.75v-0.112h0.75V17.681z M11.021,17.681h-0.75v-0.112h0.75V17.681z M9.521,17.681h-0.75v-0.112h0.75V17.681z
		 M8.021,17.681h-0.75v-0.112h0.75V17.681z M6.521,17.681h-0.75v-0.112h0.75V17.681z M5.021,17.681h-0.75v-0.112h0.75V17.681z
		 M3.521,17.681h-0.75v-0.112h0.75V17.681z M2.021,17.681h-0.75v-0.112h0.75V17.681z M0.521,17.681h-0.75v-0.112h0.75V17.681z
		 M14.021,16.181h-0.75v-0.112h0.75V16.181z M12.521,16.181h-0.75v-0.112h0.75V16.181z M11.021,16.181h-0.75v-0.112h0.75V16.181z
		 M9.521,16.181h-0.75v-0.112h0.75V16.181z M8.021,16.181h-0.75v-0.112h0.75V16.181z M6.521,16.181h-0.75v-0.112h0.75V16.181z
		 M5.021,16.181h-0.75v-0.112h0.75V16.181z M3.521,16.181h-0.75v-0.112h0.75V16.181z M2.021,16.181h-0.75v-0.112h0.75V16.181z
		 M0.521,16.181h-0.75v-0.112h0.75V16.181z M14.021,14.681h-0.75v-0.112h0.75V14.681z M12.521,14.681h-0.75v-0.112h0.75V14.681z
		 M11.021,14.681h-0.75v-0.112h0.75V14.681z M9.521,14.681h-0.75v-0.112h0.75V14.681z M8.021,14.681h-0.75v-0.112h0.75V14.681z
		 M6.521,14.681h-0.75v-0.112h0.75V14.681z M5.021,14.681h-0.75v-0.112h0.75V14.681z M3.521,14.681h-0.75v-0.112h0.75V14.681z
		 M2.021,14.681h-0.75v-0.112h0.75V14.681z M0.521,14.681h-0.75v-0.112h0.75V14.681z M14.021,13.181h-0.75v-0.112h0.75V13.181z
		 M12.521,13.181h-0.75v-0.112h0.75V13.181z M11.021,13.181h-0.75v-0.112h0.75V13.181z M9.521,13.181h-0.75v-0.112h0.75V13.181z
		 M8.021,13.181h-0.75v-0.112h0.75V13.181z M6.521,13.181h-0.75v-0.112h0.75V13.181z M5.021,13.181h-0.75v-0.112h0.75V13.181z
		 M3.521,13.181h-0.75v-0.112h0.75V13.181z M2.021,13.181h-0.75v-0.112h0.75V13.181z M0.521,13.181h-0.75v-0.112h0.75V13.181z
		 M14.021,11.681h-0.75v-0.112h0.75V11.681z M12.521,11.681h-0.75v-0.112h0.75V11.681z M11.021,11.681h-0.75v-0.112h0.75V11.681z
		 M9.521,11.681h-0.75v-0.112h0.75V11.681z M8.021,11.681h-0.75v-0.112h0.75V11.681z M6.521,11.681h-0.75v-0.112h0.75V11.681z
		 M5.021,11.681h-0.75v-0.112h0.75V11.681z M3.521,11.681h-0.75v-0.112h0.75V11.681z M2.021,11.681h-0.75v-0.112h0.75V11.681z
		 M0.521,11.681h-0.75v-0.112h0.75V11.681z M14.021,10.181h-0.75v-0.112h0.75V10.181z M12.521,10.181h-0.75v-0.112h0.75V10.181z
		 M11.021,10.181h-0.75v-0.112h0.75V10.181z M9.521,10.181h-0.75v-0.112h0.75V10.181z M8.021,10.181h-0.75v-0.112h0.75V10.181z
		 M6.521,10.181h-0.75v-0.112h0.75V10.181z M5.021,10.181h-0.75v-0.112h0.75V10.181z M3.521,10.181h-0.75v-0.112h0.75V10.181z
		 M2.021,10.181h-0.75v-0.112h0.75V10.181z M0.521,10.181h-0.75v-0.112h0.75V10.181z M14.021,8.681h-0.75V8.569h0.75V8.681z
		 M12.521,8.681h-0.75V8.569h0.75V8.681z M11.021,8.681h-0.75V8.569h0.75V8.681z M9.521,8.681h-0.75V8.569h0.75V8.681z M8.021,8.681
		h-0.75V8.569h0.75V8.681z M6.521,8.681h-0.75V8.569h0.75V8.681z M5.021,8.681h-0.75V8.569h0.75V8.681z M3.521,8.681h-0.75V8.569
		h0.75V8.681z M2.021,8.681h-0.75V8.569h0.75V8.681z M0.521,8.681h-0.75V8.569h0.75V8.681z M14.021,7.181h-0.75V7.069h0.75V7.181z
		 M12.521,7.181h-0.75V7.069h0.75V7.181z M11.021,7.181h-0.75V7.069h0.75V7.181z M9.521,7.181h-0.75V7.069h0.75V7.181z M8.021,7.181
		h-0.75V7.069h0.75V7.181z M6.521,7.181h-0.75V7.069h0.75V7.181z M5.021,7.181h-0.75V7.069h0.75V7.181z M3.521,7.181h-0.75V7.069
		h0.75V7.181z M2.021,7.181h-0.75V7.069h0.75V7.181z M0.521,7.181h-0.75V7.069h0.75V7.181z M14.021,5.681h-0.75V5.569h0.75V5.681z
		 M12.521,5.681h-0.75V5.569h0.75V5.681z M11.021,5.681h-0.75V5.569h0.75V5.681z M9.521,5.681h-0.75V5.569h0.75V5.681z M8.021,5.681
		h-0.75V5.569h0.75V5.681z M6.521,5.681h-0.75V5.569h0.75V5.681z M5.021,5.681h-0.75V5.569h0.75V5.681z M3.521,5.681h-0.75V5.569
		h0.75V5.681z M2.021,5.681h-0.75V5.569h0.75V5.681z M0.521,5.681h-0.75V5.569h0.75V5.681z M14.021,4.181h-0.75V4.069h0.75V4.181z
		 M12.521,4.181h-0.75V4.069h0.75V4.181z M11.021,4.181h-0.75V4.069h0.75V4.181z M9.521,4.181h-0.75V4.069h0.75V4.181z M8.021,4.181
		h-0.75V4.069h0.75V4.181z M6.521,4.181h-0.75V4.069h0.75V4.181z M5.021,4.181h-0.75V4.069h0.75V4.181z M3.521,4.181h-0.75V4.069
		h0.75V4.181z M2.021,4.181h-0.75V4.069h0.75V4.181z M0.521,4.181h-0.75V4.069h0.75V4.181z M14.021,2.681h-0.75V2.569h0.75V2.681z
		 M12.521,2.681h-0.75V2.569h0.75V2.681z M11.021,2.681h-0.75V2.569h0.75V2.681z M9.521,2.681h-0.75V2.569h0.75V2.681z M8.021,2.681
		h-0.75V2.569h0.75V2.681z M6.521,2.681h-0.75V2.569h0.75V2.681z M5.021,2.681h-0.75V2.569h0.75V2.681z M3.521,2.681h-0.75V2.569
		h0.75V2.681z M2.021,2.681h-0.75V2.569h0.75V2.681z M0.521,2.681h-0.75V2.569h0.75V2.681z M14.786,18.431h-0.75v-0.112h0.75V18.431
		z M13.286,18.431h-0.75v-0.112h0.75V18.431z M11.786,18.431h-0.75v-0.112h0.75V18.431z M10.286,18.431h-0.75v-0.112h0.75V18.431z
		 M8.786,18.431h-0.75v-0.112h0.75V18.431z M7.286,18.431h-0.75v-0.112h0.75V18.431z M5.786,18.431h-0.75v-0.112h0.75V18.431z
		 M4.286,18.431h-0.75v-0.112h0.75V18.431z M2.786,18.431h-0.75v-0.112h0.75V18.431z M1.286,18.431h-0.75v-0.112h0.75V18.431z
		 M14.786,16.931h-0.75v-0.112h0.75V16.931z M13.286,16.931h-0.75v-0.112h0.75V16.931z M11.786,16.931h-0.75v-0.112h0.75V16.931z
		 M10.286,16.931h-0.75v-0.112h0.75V16.931z M8.786,16.931h-0.75v-0.112h0.75V16.931z M7.286,16.931h-0.75v-0.112h0.75V16.931z
		 M5.786,16.931h-0.75v-0.112h0.75V16.931z M4.286,16.931h-0.75v-0.112h0.75V16.931z M2.786,16.931h-0.75v-0.112h0.75V16.931z
		 M1.286,16.931h-0.75v-0.112h0.75V16.931z M14.786,15.431h-0.75v-0.112h0.75V15.431z M13.286,15.431h-0.75v-0.112h0.75V15.431z
		 M11.786,15.431h-0.75v-0.112h0.75V15.431z M10.286,15.431h-0.75v-0.112h0.75V15.431z M8.786,15.431h-0.75v-0.112h0.75V15.431z
		 M7.286,15.431h-0.75v-0.112h0.75V15.431z M5.786,15.431h-0.75v-0.112h0.75V15.431z M4.286,15.431h-0.75v-0.112h0.75V15.431z
		 M2.786,15.431h-0.75v-0.112h0.75V15.431z M1.286,15.431h-0.75v-0.112h0.75V15.431z M14.786,13.931h-0.75v-0.112h0.75V13.931z
		 M13.286,13.931h-0.75v-0.112h0.75V13.931z M11.786,13.931h-0.75v-0.112h0.75V13.931z M10.286,13.931h-0.75v-0.112h0.75V13.931z
		 M8.786,13.931h-0.75v-0.112h0.75V13.931z M7.286,13.931h-0.75v-0.112h0.75V13.931z M5.786,13.931h-0.75v-0.112h0.75V13.931z
		 M4.286,13.931h-0.75v-0.112h0.75V13.931z M2.786,13.931h-0.75v-0.112h0.75V13.931z M1.286,13.931h-0.75v-0.112h0.75V13.931z
		 M14.786,12.431h-0.75v-0.112h0.75V12.431z M13.286,12.431h-0.75v-0.112h0.75V12.431z M11.786,12.431h-0.75v-0.112h0.75V12.431z
		 M10.286,12.431h-0.75v-0.112h0.75V12.431z M8.786,12.431h-0.75v-0.112h0.75V12.431z M7.286,12.431h-0.75v-0.112h0.75V12.431z
		 M5.786,12.431h-0.75v-0.112h0.75V12.431z M4.286,12.431h-0.75v-0.112h0.75V12.431z M2.786,12.431h-0.75v-0.112h0.75V12.431z
		 M1.286,12.431h-0.75v-0.112h0.75V12.431z M14.786,10.931h-0.75v-0.112h0.75V10.931z M13.286,10.931h-0.75v-0.112h0.75V10.931z
		 M11.786,10.931h-0.75v-0.112h0.75V10.931z M10.286,10.931h-0.75v-0.112h0.75V10.931z M8.786,10.931h-0.75v-0.112h0.75V10.931z
		 M7.286,10.931h-0.75v-0.112h0.75V10.931z M5.786,10.931h-0.75v-0.112h0.75V10.931z M4.286,10.931h-0.75v-0.112h0.75V10.931z
		 M2.786,10.931h-0.75v-0.112h0.75V10.931z M1.286,10.931h-0.75v-0.112h0.75V10.931z M14.786,9.431h-0.75V9.319h0.75V9.431z
		 M13.286,9.431h-0.75V9.319h0.75V9.431z M11.786,9.431h-0.75V9.319h0.75V9.431z M10.286,9.431h-0.75V9.319h0.75V9.431z
		 M8.786,9.431h-0.75V9.319h0.75V9.431z M7.286,9.431h-0.75V9.319h0.75V9.431z M5.786,9.431h-0.75V9.319h0.75V9.431z M4.286,9.431
		h-0.75V9.319h0.75V9.431z M2.786,9.431h-0.75V9.319h0.75V9.431z M1.286,9.431h-0.75V9.319h0.75V9.431z M14.786,7.931h-0.75V7.819
		h0.75V7.931z M13.286,7.931h-0.75V7.819h0.75V7.931z M11.786,7.931h-0.75V7.819h0.75V7.931z M10.286,7.931h-0.75V7.819h0.75V7.931z
		 M8.786,7.931h-0.75V7.819h0.75V7.931z M7.286,7.931h-0.75V7.819h0.75V7.931z M5.786,7.931h-0.75V7.819h0.75V7.931z M4.286,7.931
		h-0.75V7.819h0.75V7.931z M2.786,7.931h-0.75V7.819h0.75V7.931z M1.286,7.931h-0.75V7.819h0.75V7.931z M14.786,6.431h-0.75V6.319
		h0.75V6.431z M13.286,6.431h-0.75V6.319h0.75V6.431z M11.786,6.431h-0.75V6.319h0.75V6.431z M10.286,6.431h-0.75V6.319h0.75V6.431z
		 M8.786,6.431h-0.75V6.319h0.75V6.431z M7.286,6.431h-0.75V6.319h0.75V6.431z M5.786,6.431h-0.75V6.319h0.75V6.431z M4.286,6.431
		h-0.75V6.319h0.75V6.431z M2.786,6.431h-0.75V6.319h0.75V6.431z M1.286,6.431h-0.75V6.319h0.75V6.431z M14.786,4.931h-0.75V4.819
		h0.75V4.931z M13.286,4.931h-0.75V4.819h0.75V4.931z M11.786,4.931h-0.75V4.819h0.75V4.931z M10.286,4.931h-0.75V4.819h0.75V4.931z
		 M8.786,4.931h-0.75V4.819h0.75V4.931z M7.286,4.931h-0.75V4.819h0.75V4.931z M5.786,4.931h-0.75V4.819h0.75V4.931z M4.286,4.931
		h-0.75V4.819h0.75V4.931z M2.786,4.931h-0.75V4.819h0.75V4.931z M1.286,4.931h-0.75V4.819h0.75V4.931z M14.786,3.431h-0.75V3.319
		h0.75V3.431z M13.286,3.431h-0.75V3.319h0.75V3.431z M11.786,3.431h-0.75V3.319h0.75V3.431z M10.286,3.431h-0.75V3.319h0.75V3.431z
		 M8.786,3.431h-0.75V3.319h0.75V3.431z M7.286,3.431h-0.75V3.319h0.75V3.431z M5.786,3.431h-0.75V3.319h0.75V3.431z M4.286,3.431
		h-0.75V3.319h0.75V3.431z M2.786,3.431h-0.75V3.319h0.75V3.431z M1.286,3.431h-0.75V3.319h0.75V3.431z M14.771,19.069v0.112h0.75
		v-0.112H14.771z M14.771,17.569v0.112h0.75v-0.112H14.771z M14.771,16.069v0.112h0.75v-0.112H14.771z M14.771,14.569v0.112h0.75
		v-0.112H14.771z M14.771,13.069v0.112h0.75v-0.112H14.771z M14.771,11.569v0.112h0.75v-0.112H14.771z M14.771,10.069v0.112h0.75
		v-0.112H14.771z M14.771,8.569v0.112h0.75V8.569H14.771z M14.771,7.069v0.112h0.75V7.069H14.771z M14.771,5.569v0.112h0.75V5.569
		H14.771z M14.771,4.069v0.112h0.75V4.069H14.771z M14.771,2.569v0.112h0.75V2.569H14.771z M14.771,1.069v0.112h0.75V1.069H14.771z
		 M14.021,1.181h-0.75V1.069h0.75V1.181z M12.521,1.181h-0.75V1.069h0.75V1.181z M11.021,1.181h-0.75V1.069h0.75V1.181z
		 M9.521,1.181h-0.75V1.069h0.75V1.181z M8.021,1.181h-0.75V1.069h0.75V1.181z M6.521,1.181h-0.75V1.069h0.75V1.181z M5.021,1.181
		h-0.75V1.069h0.75V1.181z M3.521,1.181h-0.75V1.069h0.75V1.181z M2.021,1.181h-0.75V1.069h0.75V1.181z M0.521,1.181h-0.75V1.069
		h0.75V1.181z M14.786,1.931h-0.75V1.819h0.75V1.931z M13.286,1.931h-0.75V1.819h0.75V1.931z M11.786,1.931h-0.75V1.819h0.75V1.931z
		 M10.286,1.931h-0.75V1.819h0.75V1.931z M8.786,1.931h-0.75V1.819h0.75V1.931z M7.286,1.931h-0.75V1.819h0.75V1.931z M5.786,1.931
		h-0.75V1.819h0.75V1.931z M4.286,1.931h-0.75V1.819h0.75V1.931z M2.786,1.931h-0.75V1.819h0.75V1.931z M1.286,1.931h-0.75V1.819
		h0.75V1.931z M15.536,18.319v0.112h0.75v-0.112H15.536z M15.536,16.819v0.112h0.75v-0.112H15.536z M15.536,15.319v0.112h0.75
		v-0.112H15.536z M15.536,13.819v0.112h0.75v-0.112H15.536z M15.536,12.319v0.112h0.75v-0.112H15.536z M15.536,10.819v0.112h0.75
		v-0.112H15.536z M15.536,9.319v0.112h0.75V9.319H15.536z M15.536,7.819v0.112h0.75V7.819H15.536z M15.536,6.319v0.112h0.75V6.319
		H15.536z M15.536,4.819v0.112h0.75V4.819H15.536z M15.536,3.319v0.112h0.75V3.319H15.536z M15.536,1.819v0.112h0.75V1.819H15.536z
		 M15.536,0.319v0.112h0.75V0.319H15.536z M14.786,0.431h-0.75V0.319h0.75V0.431z M13.286,0.431h-0.75V0.319h0.75V0.431z
		 M11.786,0.431h-0.75V0.319h0.75V0.431z M10.286,0.431h-0.75V0.319h0.75V0.431z M8.786,0.431h-0.75V0.319h0.75V0.431z M7.286,0.431
		h-0.75V0.319h0.75V0.431z M5.786,0.431h-0.75V0.319h0.75V0.431z M4.286,0.431h-0.75V0.319h0.75V0.431z M2.786,0.431h-0.75V0.319
		h0.75V0.431z M1.286,0.431h-0.75V0.319h0.75V0.431z"/>
</g>
</svg>
