<?xml version="1.0" encoding="utf-8"?>
<!-- Generator: Adobe Illustrator 15.1.0, SVG Export Plug-In . SVG Version: 6.00 Build 0)  -->
<!DOCTYPE svg PUBLIC "-//W3C//DTD SVG 1.1//EN" "http://www.w3.org/Graphics/SVG/1.1/DTD/svg11.dtd">
<svg version="1.1" id="Layer_9" xmlns="http://www.w3.org/2000/svg" xmlns:xlink="http://www.w3.org/1999/xlink" x="0px" y="0px"
	 width="48px" height="48px" viewBox="0 0 48 48" enable-background="new 0 0 48 48" xml:space="preserve">
<rect fill="#F7E5C8" width="48" height="48"/>
<path fill="#222221" d="M34.5,37.5c-2.898,0-5.34-1.108-6.549-1.777c-2.122,0.958-4.782,0.956-6.902,0
	C19.839,36.392,17.398,37.5,14.5,37.5v-3c3.092,0,5.62-1.716,5.646-1.732l0.811-0.559l0.839,0.52c1.516,0.949,3.892,0.949,5.408,0
	l0.841-0.526l0.814,0.568C28.88,32.785,31.407,34.5,34.5,34.5V37.5z"/>
<rect x="11.024" y="15" fill="#222221" width="7" height="7"/>
<rect x="31.049" y="15" fill="#222221" width="6.999" height="7"/>
<g>
	<defs>
		<path id="SVGID_1_" d="M0,25.625C0,41.75,12,55,13,36c0,0,4,12,11.5,12H0V25.625z"/>
	</defs>
	<clipPath id="SVGID_2_">
		<use xlink:href="#SVGID_1_"  overflow="visible"/>
	</clipPath>
	<polygon clip-path="url(#SVGID_2_)" fill="#222221" points="21.552,48.275 21.905,47.923 22.905,48.922 22.55,49.275 	"/>
	<polygon clip-path="url(#SVGID_2_)" fill="#222221" points="18.198,48.275 18.551,47.923 19.551,48.922 19.196,49.275 	"/>
	<polygon clip-path="url(#SVGID_2_)" fill="#222221" points="17.895,46.576 18.249,46.223 19.249,47.223 18.895,47.576 	"/>
	<polygon clip-path="url(#SVGID_2_)" fill="#222221" points="19.583,46.889 19.937,46.535 20.937,47.535 20.583,47.889 	"/>
	<polygon id="_x3C_Path_x3E_" clip-path="url(#SVGID_2_)" fill="#222221" points="18.198,44.922 18.551,44.568 19.551,45.567 
		19.196,45.922 	"/>
	<polygon clip-path="url(#SVGID_2_)" fill="#222221" points="14.844,48.275 15.197,47.923 16.197,48.922 15.842,49.275 	"/>
	<polygon clip-path="url(#SVGID_2_)" fill="#222221" points="14.541,46.576 14.895,46.223 15.895,47.223 15.541,47.576 	"/>
	<polygon clip-path="url(#SVGID_2_)" fill="#222221" points="16.229,46.889 16.583,46.535 17.583,47.535 17.229,47.889 	"/>
	<polygon clip-path="url(#SVGID_2_)" fill="#222221" points="14.844,44.922 15.197,44.568 16.197,45.567 15.842,45.922 	"/>
	<polygon clip-path="url(#SVGID_2_)" fill="#222221" points="16.542,45.223 16.895,44.868 17.895,45.868 17.541,46.223 	"/>
	<polygon clip-path="url(#SVGID_2_)" fill="#222221" points="14.541,43.223 14.895,42.868 15.895,43.868 15.541,44.223 	"/>
	<polygon clip-path="url(#SVGID_2_)" fill="#222221" points="16.229,43.534 16.583,43.182 17.583,44.182 17.229,44.534 	"/>
	<polygon clip-path="url(#SVGID_2_)" fill="#222221" points="14.844,41.566 15.197,41.214 16.197,42.213 15.842,42.566 	"/>
	<polygon clip-path="url(#SVGID_2_)" fill="#222221" points="16.542,41.867 16.895,41.514 17.895,42.514 17.541,42.867 	"/>
	<polygon clip-path="url(#SVGID_2_)" fill="#222221" points="14.541,39.867 14.895,39.514 15.895,40.514 15.541,40.867 	"/>
	<polygon clip-path="url(#SVGID_2_)" fill="#222221" points="11.49,48.275 11.843,47.923 12.843,48.922 12.488,49.275 	"/>
	<polygon clip-path="url(#SVGID_2_)" fill="#222221" points="13.188,48.576 13.541,48.223 14.541,49.223 14.187,49.576 	"/>
	<polygon clip-path="url(#SVGID_2_)" fill="#222221" points="11.187,46.576 11.541,46.223 12.541,47.223 12.187,47.576 	"/>
	<polygon clip-path="url(#SVGID_2_)" fill="#222221" points="12.875,46.889 13.229,46.535 14.229,47.535 13.875,47.889 	"/>
	<polygon clip-path="url(#SVGID_2_)" fill="#222221" points="11.49,44.922 11.843,44.568 12.843,45.567 12.488,45.922 	"/>
	<polygon clip-path="url(#SVGID_2_)" fill="#222221" points="13.188,45.223 13.541,44.868 14.541,45.868 14.187,46.223 	"/>
	<polygon clip-path="url(#SVGID_2_)" fill="#222221" points="11.187,43.223 11.541,42.868 12.541,43.868 12.187,44.223 	"/>
	<polygon clip-path="url(#SVGID_2_)" fill="#222221" points="12.875,43.534 13.229,43.182 14.229,44.182 13.875,44.534 	"/>
	<polygon clip-path="url(#SVGID_2_)" fill="#222221" points="11.49,41.566 11.843,41.214 12.843,42.213 12.488,42.566 	"/>
	<polygon clip-path="url(#SVGID_2_)" fill="#222221" points="13.188,41.867 13.541,41.514 14.541,42.514 14.187,42.867 	"/>
	<polygon clip-path="url(#SVGID_2_)" fill="#222221" points="11.187,39.867 11.541,39.514 12.541,40.514 12.187,40.867 	"/>
	<polygon clip-path="url(#SVGID_2_)" fill="#222221" points="12.875,40.18 13.229,39.826 14.229,40.826 13.875,41.18 	"/>
	<polygon clip-path="url(#SVGID_2_)" fill="#222221" points="11.49,38.213 11.843,37.86 12.843,38.859 12.488,39.213 	"/>
	<polygon clip-path="url(#SVGID_2_)" fill="#222221" points="13.188,38.514 13.541,38.16 14.541,39.16 14.187,39.514 	"/>
	<polygon clip-path="url(#SVGID_2_)" fill="#222221" points="8.136,48.275 8.489,47.923 9.489,48.922 9.134,49.275 	"/>
	<polygon clip-path="url(#SVGID_2_)" fill="#222221" points="7.833,46.576 8.187,46.223 9.187,47.223 8.833,47.576 	"/>
	<polygon clip-path="url(#SVGID_2_)" fill="#222221" points="9.521,46.889 9.875,46.535 10.875,47.535 10.521,47.889 	"/>
	<polygon clip-path="url(#SVGID_2_)" fill="#222221" points="8.136,44.922 8.489,44.568 9.489,45.567 9.134,45.922 	"/>
	<polygon clip-path="url(#SVGID_2_)" fill="#222221" points="9.833,45.223 10.187,44.868 11.187,45.868 10.833,46.223 	"/>
	<polygon clip-path="url(#SVGID_2_)" fill="#222221" points="4.782,48.275 5.135,47.923 6.135,48.922 5.78,49.275 	"/>
	<polygon clip-path="url(#SVGID_2_)" fill="#222221" points="4.479,46.576 4.833,46.223 5.833,47.223 5.479,47.576 	"/>
	<polygon clip-path="url(#SVGID_2_)" fill="#222221" points="6.167,46.889 6.521,46.535 7.521,47.535 7.167,47.889 	"/>
	<polygon clip-path="url(#SVGID_2_)" fill="#222221" points="4.782,44.922 5.135,44.568 6.135,45.567 5.78,45.922 	"/>
	<polygon clip-path="url(#SVGID_2_)" fill="#222221" points="6.479,45.223 6.833,44.868 7.833,45.868 7.479,46.223 	"/>
	<polygon clip-path="url(#SVGID_2_)" fill="#222221" points="4.479,43.223 4.833,42.868 5.833,43.868 5.479,44.223 	"/>
	<polygon clip-path="url(#SVGID_2_)" fill="#222221" points="6.167,43.534 6.521,43.182 7.521,44.182 7.167,44.534 	"/>
	<polygon clip-path="url(#SVGID_2_)" fill="#222221" points="1.428,48.275 1.781,47.923 2.781,48.922 2.426,49.275 	"/>
	<polygon clip-path="url(#SVGID_2_)" fill="#222221" points="1.125,46.576 1.479,46.223 2.479,47.223 2.125,47.576 	"/>
	<polygon clip-path="url(#SVGID_2_)" fill="#222221" points="2.812,46.889 3.167,46.535 4.167,47.535 3.812,47.889 	"/>
	<polygon clip-path="url(#SVGID_2_)" fill="#222221" points="1.428,44.922 1.781,44.568 2.781,45.567 2.426,45.922 	"/>
	<polygon clip-path="url(#SVGID_2_)" fill="#222221" points="3.125,45.223 3.479,44.868 4.479,45.868 4.125,46.223 	"/>
	<polygon clip-path="url(#SVGID_2_)" fill="#222221" points="1.125,43.223 1.479,42.868 2.479,43.868 2.125,44.223 	"/>
	<polygon clip-path="url(#SVGID_2_)" fill="#222221" points="2.812,43.534 3.167,43.182 4.167,44.182 3.812,44.534 	"/>
	<polygon clip-path="url(#SVGID_2_)" fill="#222221" points="1.428,41.566 1.781,41.214 2.781,42.213 2.426,42.566 	"/>
	<polygon clip-path="url(#SVGID_2_)" fill="#222221" points="3.125,41.867 3.479,41.514 4.479,42.514 4.125,42.867 	"/>
	<polygon clip-path="url(#SVGID_2_)" fill="#222221" points="1.125,39.867 1.479,39.514 2.479,40.514 2.125,40.867 	"/>
	<polygon clip-path="url(#SVGID_2_)" fill="#222221" points="2.812,40.18 3.167,39.826 4.167,40.826 3.812,41.18 	"/>
	<polygon clip-path="url(#SVGID_2_)" fill="#222221" points="1.428,38.213 1.781,37.86 2.781,38.859 2.426,39.213 	"/>
	<polygon clip-path="url(#SVGID_2_)" fill="#222221" points="1.125,36.514 1.479,36.16 2.479,37.16 2.125,37.514 	"/>
	<polygon clip-path="url(#SVGID_2_)" fill="#222221" points="-0.542,46.889 -0.188,46.535 0.812,47.535 0.458,47.889 	"/>
	<polygon clip-path="url(#SVGID_2_)" fill="#222221" points="-0.229,45.223 0.125,44.868 1.125,45.868 0.771,46.223 	"/>
	<polygon clip-path="url(#SVGID_2_)" fill="#222221" points="-0.542,43.534 -0.188,43.182 0.812,44.182 0.458,44.534 	"/>
	<polygon clip-path="url(#SVGID_2_)" fill="#222221" points="-0.229,41.867 0.125,41.514 1.125,42.514 0.771,42.867 	"/>
	<polygon clip-path="url(#SVGID_2_)" fill="#222221" points="-0.542,40.18 -0.188,39.826 0.812,40.826 0.458,41.18 	"/>
	<polygon clip-path="url(#SVGID_2_)" fill="#222221" points="-0.229,38.514 0.125,38.16 1.125,39.16 0.771,39.514 	"/>
	<polygon clip-path="url(#SVGID_2_)" fill="#222221" points="-0.542,36.826 -0.188,36.473 0.812,37.473 0.458,37.826 	"/>
	<polygon clip-path="url(#SVGID_2_)" fill="#222221" points="-0.229,35.16 0.125,34.807 1.125,35.807 0.771,36.16 	"/>
	<polygon clip-path="url(#SVGID_2_)" fill="#222221" points="-0.542,33.473 -0.188,33.119 0.812,34.119 0.458,34.473 	"/>
	<polygon clip-path="url(#SVGID_2_)" fill="#222221" points="-0.229,31.807 0.125,31.452 1.125,32.452 0.771,32.807 	"/>
	<polygon clip-path="url(#SVGID_2_)" fill="#222221" points="-0.542,30.118 -0.188,29.766 0.812,30.766 0.458,31.118 	"/>
	<polygon clip-path="url(#SVGID_2_)" fill="#222221" points="-0.229,28.451 0.125,28.098 1.125,29.098 0.771,29.451 	"/>
</g>
<g>
	<defs>
		<path id="SVGID_3_" d="M48,25.625C48,41.75,36,55,36,36c0,0-5,12-12.5,12H48V25.625z"/>
	</defs>
	<clipPath id="SVGID_4_">
		<use xlink:href="#SVGID_3_"  overflow="visible"/>
	</clipPath>
	<polygon clip-path="url(#SVGID_4_)" fill="#222221" points="45.029,48.275 45.383,47.923 46.383,48.922 46.028,49.275 	"/>
	<polygon clip-path="url(#SVGID_4_)" fill="#222221" points="44.727,46.576 45.08,46.223 46.08,47.223 45.727,47.576 	"/>
	<polygon clip-path="url(#SVGID_4_)" fill="#222221" points="46.414,46.889 46.769,46.535 47.769,47.535 47.414,47.889 	"/>
	<polygon clip-path="url(#SVGID_4_)" fill="#222221" points="45.029,44.922 45.383,44.568 46.383,45.567 46.028,45.922 	"/>
	<polygon clip-path="url(#SVGID_4_)" fill="#222221" points="46.728,45.223 47.08,44.868 48.08,45.868 47.727,46.223 	"/>
	<polygon clip-path="url(#SVGID_4_)" fill="#222221" points="44.727,43.223 45.08,42.868 46.08,43.868 45.727,44.223 	"/>
	<polygon clip-path="url(#SVGID_4_)" fill="#222221" points="46.414,43.534 46.769,43.182 47.769,44.182 47.414,44.534 	"/>
	<polygon clip-path="url(#SVGID_4_)" fill="#222221" points="45.029,41.566 45.383,41.214 46.383,42.213 46.028,42.566 	"/>
	<polygon clip-path="url(#SVGID_4_)" fill="#222221" points="46.728,41.867 47.08,41.514 48.08,42.514 47.727,42.867 	"/>
	<polygon clip-path="url(#SVGID_4_)" fill="#222221" points="44.727,39.867 45.08,39.514 46.08,40.514 45.727,40.867 	"/>
	<polygon clip-path="url(#SVGID_4_)" fill="#222221" points="46.414,40.18 46.769,39.826 47.769,40.826 47.414,41.18 	"/>
	<polygon clip-path="url(#SVGID_4_)" fill="#222221" points="45.029,38.213 45.383,37.86 46.383,38.859 46.028,39.213 	"/>
	<polygon clip-path="url(#SVGID_4_)" fill="#222221" points="46.728,38.514 47.08,38.16 48.08,39.16 47.727,39.514 	"/>
	<polygon clip-path="url(#SVGID_4_)" fill="#222221" points="44.727,36.514 45.08,36.16 46.08,37.16 45.727,37.514 	"/>
	<polygon clip-path="url(#SVGID_4_)" fill="#222221" points="46.414,36.826 46.769,36.473 47.769,37.473 47.414,37.826 	"/>
	<polygon clip-path="url(#SVGID_4_)" fill="#222221" points="46.728,35.16 47.08,34.807 48.08,35.807 47.727,36.16 	"/>
	<polygon clip-path="url(#SVGID_4_)" fill="#222221" points="46.414,33.473 46.769,33.119 47.769,34.119 47.414,34.473 	"/>
	<polygon clip-path="url(#SVGID_4_)" fill="#222221" points="46.728,31.807 47.08,31.452 48.08,32.452 47.727,32.807 	"/>
	<polygon clip-path="url(#SVGID_4_)" fill="#222221" points="46.414,30.118 46.769,29.766 47.769,30.766 47.414,31.118 	"/>
	<polygon clip-path="url(#SVGID_4_)" fill="#222221" points="46.728,28.451 47.08,28.098 48.08,29.098 47.727,29.451 	"/>
	<polygon clip-path="url(#SVGID_4_)" fill="#222221" points="41.676,48.275 42.029,47.923 43.029,48.922 42.675,49.275 	"/>
	<polygon clip-path="url(#SVGID_4_)" fill="#222221" points="41.373,46.576 41.727,46.223 42.727,47.223 42.373,47.576 	"/>
	<polygon clip-path="url(#SVGID_4_)" fill="#222221" points="43.061,46.889 43.415,46.535 44.415,47.535 44.061,47.889 	"/>
	<polygon clip-path="url(#SVGID_4_)" fill="#222221" points="41.676,44.922 42.029,44.568 43.029,45.567 42.675,45.922 	"/>
	<polygon clip-path="url(#SVGID_4_)" fill="#222221" points="43.374,45.223 43.727,44.868 44.727,45.868 44.373,46.223 	"/>
	<polygon clip-path="url(#SVGID_4_)" fill="#222221" points="41.373,43.223 41.727,42.868 42.727,43.868 42.373,44.223 	"/>
	<polygon clip-path="url(#SVGID_4_)" fill="#222221" points="43.061,43.534 43.415,43.182 44.415,44.182 44.061,44.534 	"/>
	<polygon clip-path="url(#SVGID_4_)" fill="#222221" points="43.374,41.867 43.727,41.514 44.727,42.514 44.373,42.867 	"/>
	<polygon clip-path="url(#SVGID_4_)" fill="#222221" points="43.061,40.18 43.415,39.826 44.415,40.826 44.061,41.18 	"/>
	<polygon clip-path="url(#SVGID_4_)" fill="#222221" points="38.322,48.275 38.676,47.923 39.676,48.922 39.321,49.275 	"/>
	<polygon clip-path="url(#SVGID_4_)" fill="#222221" points="38.02,46.576 38.373,46.223 39.373,47.223 39.02,47.576 	"/>
	<polygon clip-path="url(#SVGID_4_)" fill="#222221" points="39.707,46.889 40.062,46.535 41.062,47.535 40.707,47.889 	"/>
	<polygon clip-path="url(#SVGID_4_)" fill="#222221" points="38.322,44.922 38.676,44.568 39.676,45.567 39.321,45.922 	"/>
	<polygon clip-path="url(#SVGID_4_)" fill="#222221" points="40.021,45.223 40.373,44.868 41.373,45.868 41.02,46.223 	"/>
	<polygon clip-path="url(#SVGID_4_)" fill="#222221" points="34.969,48.275 35.321,47.923 36.321,48.922 35.967,49.275 	"/>
	<polygon clip-path="url(#SVGID_4_)" fill="#222221" points="34.665,46.576 35.02,46.223 36.02,47.223 35.665,47.576 	"/>
	<polygon clip-path="url(#SVGID_4_)" fill="#222221" points="36.354,46.889 36.707,46.535 37.707,47.535 37.354,47.889 	"/>
	<polygon clip-path="url(#SVGID_4_)" fill="#222221" points="34.969,44.922 35.321,44.568 36.321,45.567 35.967,45.922 	"/>
	<polygon clip-path="url(#SVGID_4_)" fill="#222221" points="36.666,45.223 37.02,44.868 38.02,45.868 37.665,46.223 	"/>
	<polygon clip-path="url(#SVGID_4_)" fill="#222221" points="34.665,43.223 35.02,42.868 36.02,43.868 35.665,44.223 	"/>
	<polygon clip-path="url(#SVGID_4_)" fill="#222221" points="36.354,43.534 36.707,43.182 37.707,44.182 37.354,44.534 	"/>
	<polygon clip-path="url(#SVGID_4_)" fill="#222221" points="34.969,41.566 35.321,41.214 36.321,42.213 35.967,42.566 	"/>
	<polygon clip-path="url(#SVGID_4_)" fill="#222221" points="34.665,39.867 35.02,39.514 36.02,40.514 35.665,40.867 	"/>
	<polygon clip-path="url(#SVGID_4_)" fill="#222221" points="34.969,38.213 35.321,37.86 36.321,38.859 35.967,39.213 	"/>
	<polygon clip-path="url(#SVGID_4_)" fill="#222221" points="34.665,36.514 35.02,36.16 36.02,37.16 35.665,37.514 	"/>
	<polygon clip-path="url(#SVGID_4_)" fill="#222221" points="31.613,48.275 31.967,47.923 32.967,48.922 32.612,49.275 	"/>
	<polygon clip-path="url(#SVGID_4_)" fill="#222221" points="31.311,46.576 31.664,46.223 32.664,47.223 32.311,47.576 	"/>
	<polygon clip-path="url(#SVGID_4_)" fill="#222221" points="32.998,46.889 33.353,46.535 34.353,47.535 33.998,47.889 	"/>
	<polygon clip-path="url(#SVGID_4_)" fill="#222221" points="31.613,44.922 31.967,44.568 32.967,45.567 32.612,45.922 	"/>
	<polygon clip-path="url(#SVGID_4_)" fill="#222221" points="33.312,45.223 33.664,44.868 34.664,45.868 34.311,46.223 	"/>
	<polygon clip-path="url(#SVGID_4_)" fill="#222221" points="31.311,43.223 31.664,42.868 32.664,43.868 32.311,44.223 	"/>
	<polygon clip-path="url(#SVGID_4_)" fill="#222221" points="32.998,43.534 33.353,43.182 34.353,44.182 33.998,44.534 	"/>
	<polygon clip-path="url(#SVGID_4_)" fill="#222221" points="31.613,41.566 31.967,41.214 32.967,42.213 32.612,42.566 	"/>
	<polygon clip-path="url(#SVGID_4_)" fill="#222221" points="33.312,41.867 33.664,41.514 34.664,42.514 34.311,42.867 	"/>
	<polygon clip-path="url(#SVGID_4_)" fill="#222221" points="32.998,40.18 33.353,39.826 34.353,40.826 33.998,41.18 	"/>
	<polygon clip-path="url(#SVGID_4_)" fill="#222221" points="33.312,38.514 33.664,38.16 34.664,39.16 34.311,39.514 	"/>
	<polygon clip-path="url(#SVGID_4_)" fill="#222221" points="28.26,48.275 28.613,47.923 29.613,48.922 29.259,49.275 	"/>
	<polygon clip-path="url(#SVGID_4_)" fill="#222221" points="27.957,46.576 28.311,46.223 29.311,47.223 28.957,47.576 	"/>
	<polygon clip-path="url(#SVGID_4_)" fill="#222221" points="29.645,46.889 29.999,46.535 30.999,47.535 30.645,47.889 	"/>
	<polygon clip-path="url(#SVGID_4_)" fill="#222221" points="28.26,44.922 28.613,44.568 29.613,45.567 29.259,45.922 	"/>
	<polygon clip-path="url(#SVGID_4_)" fill="#222221" points="29.958,45.223 30.311,44.868 31.311,45.868 30.957,46.223 	"/>
	<polygon clip-path="url(#SVGID_4_)" fill="#222221" points="29.645,43.534 29.999,43.182 30.999,44.182 30.645,44.534 	"/>
	<polygon clip-path="url(#SVGID_4_)" fill="#222221" points="24.906,48.275 25.26,47.923 26.26,48.922 25.905,49.275 	"/>
	<polygon clip-path="url(#SVGID_4_)" fill="#222221" points="26.291,46.889 26.646,46.535 27.646,47.535 27.291,47.889 	"/>
</g>
<path fill="#222221" d="M36,34.35c-3.186,0-6.567-1.742-8.245-2.743c-0.831,0.272-1.998,0.556-3.255,0.556s-2.424-0.283-3.254-0.556
	c-1.679,1.001-5.06,2.743-8.246,2.743v-4.5c2.397,0,5.743-1.929,6.726-2.604l1.08-0.742l1.178,0.573
	c0.002,0.001,1.253,0.586,2.517,0.586c1.263,0,2.514-0.585,2.526-0.591l1.171-0.554l1.077,0.728
	c1.059,0.724,4.334,2.604,6.726,2.604V34.35z"/>
<g>
	<defs>
		<path id="SVGID_5_" d="M36,36c-1,2-2,2-5,2c-1,0-2.624,2.083-6.5,2.083S19,38,18,38c-3,0-4,0-5-2c0,0-2.084,10,0,11s11.5,1,11.5,1
			s9.416,0,11.5-1S36,36,36,36z"/>
	</defs>
	<clipPath id="SVGID_6_">
		<use xlink:href="#SVGID_5_"  overflow="visible"/>
	</clipPath>
	<polygon clip-path="url(#SVGID_6_)" fill="#222221" points="34.665,46.576 35.02,46.223 36.02,47.223 35.665,47.576 	"/>
	<polygon clip-path="url(#SVGID_6_)" fill="#222221" points="34.969,44.922 35.321,44.569 36.321,45.568 35.967,45.922 	"/>
	<polygon clip-path="url(#SVGID_6_)" fill="#222221" points="36.666,45.223 37.02,44.869 38.02,45.869 37.665,46.223 	"/>
	<polygon clip-path="url(#SVGID_6_)" fill="#222221" points="34.665,43.223 35.02,42.869 36.02,43.869 35.665,44.223 	"/>
	<polygon clip-path="url(#SVGID_6_)" fill="#222221" points="36.354,43.535 36.707,43.182 37.707,44.182 37.354,44.535 	"/>
	<polygon clip-path="url(#SVGID_6_)" fill="#222221" points="34.969,41.568 35.321,41.215 36.321,42.214 35.967,42.568 	"/>
	<polygon clip-path="url(#SVGID_6_)" fill="#222221" points="36.666,41.869 37.02,41.515 38.02,42.515 37.665,42.869 	"/>
	<polygon clip-path="url(#SVGID_6_)" fill="#222221" points="34.665,39.869 35.02,39.515 36.02,40.515 35.665,40.869 	"/>
	<polygon clip-path="url(#SVGID_6_)" fill="#222221" points="36.354,40.181 36.707,39.828 37.707,40.828 37.354,41.181 	"/>
	<polygon clip-path="url(#SVGID_6_)" fill="#222221" points="34.969,38.213 35.321,37.86 36.321,38.859 35.967,39.213 	"/>
	<polygon clip-path="url(#SVGID_6_)" fill="#222221" points="34.665,36.514 35.02,36.16 36.02,37.16 35.665,37.514 	"/>
	<polygon clip-path="url(#SVGID_6_)" fill="#222221" points="31.311,46.576 31.664,46.223 32.664,47.223 32.311,47.576 	"/>
	<polygon clip-path="url(#SVGID_6_)" fill="#222221" points="32.998,46.889 33.353,46.535 34.353,47.535 33.998,47.889 	"/>
	<polygon clip-path="url(#SVGID_6_)" fill="#222221" points="31.613,44.922 31.967,44.569 32.967,45.568 32.612,45.922 	"/>
	<polygon clip-path="url(#SVGID_6_)" fill="#222221" points="33.312,45.223 33.664,44.869 34.664,45.869 34.311,46.223 	"/>
	<polygon clip-path="url(#SVGID_6_)" fill="#222221" points="31.311,43.223 31.664,42.869 32.664,43.869 32.311,44.223 	"/>
	<polygon clip-path="url(#SVGID_6_)" fill="#222221" points="32.998,43.535 33.353,43.182 34.353,44.182 33.998,44.535 	"/>
	<polygon clip-path="url(#SVGID_6_)" fill="#222221" points="31.613,41.568 31.967,41.215 32.967,42.214 32.612,42.568 	"/>
	<polygon clip-path="url(#SVGID_6_)" fill="#222221" points="33.312,41.869 33.664,41.515 34.664,42.515 34.311,42.869 	"/>
	<polygon clip-path="url(#SVGID_6_)" fill="#222221" points="31.311,39.869 31.664,39.515 32.664,40.515 32.311,40.869 	"/>
	<polygon clip-path="url(#SVGID_6_)" fill="#222221" points="32.998,40.181 33.353,39.828 34.353,40.828 33.998,41.181 	"/>
	<polygon clip-path="url(#SVGID_6_)" fill="#222221" points="31.613,38.213 31.967,37.86 32.967,38.859 32.612,39.213 	"/>
	<polygon clip-path="url(#SVGID_6_)" fill="#222221" points="33.312,38.514 33.664,38.16 34.664,39.16 34.311,39.514 	"/>
	<polygon clip-path="url(#SVGID_6_)" fill="#222221" points="28.26,48.275 28.613,47.923 29.613,48.922 29.259,49.275 	"/>
	<polygon clip-path="url(#SVGID_6_)" fill="#222221" points="27.957,46.576 28.311,46.223 29.311,47.223 28.957,47.576 	"/>
	<polygon clip-path="url(#SVGID_6_)" fill="#222221" points="29.645,46.889 29.999,46.535 30.999,47.535 30.645,47.889 	"/>
	<polygon clip-path="url(#SVGID_6_)" fill="#222221" points="28.26,44.922 28.613,44.569 29.613,45.568 29.259,45.922 	"/>
	<polygon clip-path="url(#SVGID_6_)" fill="#222221" points="29.958,45.223 30.311,44.869 31.311,45.869 30.957,46.223 	"/>
	<polygon clip-path="url(#SVGID_6_)" fill="#222221" points="27.957,43.223 28.311,42.869 29.311,43.869 28.957,44.223 	"/>
	<polygon clip-path="url(#SVGID_6_)" fill="#222221" points="29.645,43.535 29.999,43.182 30.999,44.182 30.645,44.535 	"/>
	<polygon clip-path="url(#SVGID_6_)" fill="#222221" points="28.26,41.568 28.613,41.215 29.613,42.214 29.259,42.568 	"/>
	<polygon clip-path="url(#SVGID_6_)" fill="#222221" points="29.958,41.869 30.311,41.515 31.311,42.515 30.957,42.869 	"/>
	<polygon clip-path="url(#SVGID_6_)" fill="#222221" points="27.957,39.869 28.311,39.515 29.311,40.515 28.957,40.869 	"/>
	<polygon clip-path="url(#SVGID_6_)" fill="#222221" points="29.645,40.181 29.999,39.828 30.999,40.828 30.645,41.181 	"/>
	<polygon clip-path="url(#SVGID_6_)" fill="#222221" points="28.26,38.213 28.613,37.86 29.613,38.859 29.259,39.213 	"/>
	<polygon clip-path="url(#SVGID_6_)" fill="#222221" points="29.958,38.514 30.311,38.16 31.311,39.16 30.957,39.514 	"/>
	<polygon clip-path="url(#SVGID_6_)" fill="#222221" points="24.906,48.275 25.26,47.923 26.26,48.922 25.905,49.275 	"/>
	<polygon clip-path="url(#SVGID_6_)" fill="#222221" points="24.604,46.576 24.957,46.223 25.957,47.223 25.604,47.576 	"/>
	<polygon clip-path="url(#SVGID_6_)" fill="#222221" points="26.291,46.889 26.646,46.535 27.646,47.535 27.291,47.889 	"/>
	<polygon clip-path="url(#SVGID_6_)" fill="#222221" points="24.906,44.922 25.26,44.569 26.26,45.568 25.905,45.922 	"/>
	<polygon clip-path="url(#SVGID_6_)" fill="#222221" points="26.604,45.223 26.957,44.869 27.957,45.869 27.604,46.223 	"/>
	<polygon clip-path="url(#SVGID_6_)" fill="#222221" points="24.604,43.223 24.957,42.869 25.957,43.869 25.604,44.223 	"/>
	<polygon clip-path="url(#SVGID_6_)" fill="#222221" points="26.291,43.535 26.646,43.182 27.646,44.182 27.291,44.535 	"/>
	<polygon clip-path="url(#SVGID_6_)" fill="#222221" points="24.906,41.568 25.26,41.215 26.26,42.214 25.905,42.568 	"/>
	<polygon clip-path="url(#SVGID_6_)" fill="#222221" points="26.604,41.869 26.957,41.515 27.957,42.515 27.604,42.869 	"/>
	<polygon clip-path="url(#SVGID_6_)" fill="#222221" points="24.604,39.869 24.957,39.515 25.957,40.515 25.604,40.869 	"/>
	<polygon clip-path="url(#SVGID_6_)" fill="#222221" points="26.291,40.181 26.646,39.828 27.646,40.828 27.291,41.181 	"/>
	<polygon clip-path="url(#SVGID_6_)" fill="#222221" points="21.552,48.275 21.905,47.923 22.905,48.922 22.551,49.275 	"/>
	<polygon clip-path="url(#SVGID_6_)" fill="#222221" points="21.249,46.576 21.603,46.223 22.603,47.223 22.249,47.576 	"/>
	<polygon clip-path="url(#SVGID_6_)" fill="#222221" points="22.937,46.889 23.291,46.535 24.291,47.535 23.937,47.889 	"/>
	<polygon clip-path="url(#SVGID_6_)" fill="#222221" points="21.552,44.922 21.905,44.569 22.905,45.568 22.551,45.922 	"/>
	<polygon clip-path="url(#SVGID_6_)" fill="#222221" points="23.25,45.223 23.603,44.869 24.604,45.869 24.249,46.223 	"/>
	<polygon clip-path="url(#SVGID_6_)" fill="#222221" points="21.249,43.223 21.603,42.869 22.603,43.869 22.249,44.223 	"/>
	<polygon clip-path="url(#SVGID_6_)" fill="#222221" points="22.937,43.535 23.291,43.182 24.291,44.182 23.937,44.535 	"/>
	<polygon clip-path="url(#SVGID_6_)" fill="#222221" points="21.552,41.568 21.905,41.215 22.905,42.214 22.551,42.568 	"/>
	<polygon clip-path="url(#SVGID_6_)" fill="#222221" points="23.25,41.869 23.603,41.515 24.604,42.515 24.249,42.869 	"/>
	<polygon clip-path="url(#SVGID_6_)" fill="#222221" points="21.249,39.869 21.603,39.515 22.603,40.515 22.249,40.869 	"/>
	<polygon clip-path="url(#SVGID_6_)" fill="#222221" points="22.937,40.181 23.291,39.828 24.291,40.828 23.937,41.181 	"/>
	<polygon clip-path="url(#SVGID_6_)" fill="#222221" points="17.895,46.576 18.249,46.223 19.249,47.223 18.895,47.576 	"/>
	<polygon clip-path="url(#SVGID_6_)" fill="#222221" points="19.583,46.889 19.937,46.535 20.937,47.535 20.583,47.889 	"/>
	<polygon clip-path="url(#SVGID_6_)" fill="#222221" points="18.198,44.922 18.551,44.569 19.551,45.568 19.197,45.922 	"/>
	<polygon clip-path="url(#SVGID_6_)" fill="#222221" points="19.896,45.223 20.249,44.869 21.249,45.869 20.895,46.223 	"/>
	<polygon clip-path="url(#SVGID_6_)" fill="#222221" points="17.895,43.223 18.249,42.869 19.249,43.869 18.895,44.223 	"/>
	<polygon clip-path="url(#SVGID_6_)" fill="#222221" points="19.583,43.535 19.937,43.182 20.937,44.182 20.583,44.535 	"/>
	<polygon clip-path="url(#SVGID_6_)" fill="#222221" points="18.198,41.568 18.551,41.215 19.551,42.214 19.197,42.568 	"/>
	<polygon clip-path="url(#SVGID_6_)" fill="#222221" points="19.896,41.869 20.249,41.515 21.249,42.515 20.895,42.869 	"/>
	<polygon clip-path="url(#SVGID_6_)" fill="#222221" points="17.895,39.869 18.249,39.515 19.249,40.515 18.895,40.869 	"/>
	<polygon clip-path="url(#SVGID_6_)" fill="#222221" points="19.583,40.181 19.937,39.828 20.937,40.828 20.583,41.181 	"/>
	<polygon clip-path="url(#SVGID_6_)" fill="#222221" points="18.198,38.213 18.551,37.86 19.551,38.859 19.197,39.213 	"/>
	<polygon clip-path="url(#SVGID_6_)" fill="#222221" points="19.896,38.514 20.249,38.16 21.249,39.16 20.895,39.514 	"/>
	<polygon clip-path="url(#SVGID_6_)" fill="#222221" points="14.541,46.576 14.895,46.223 15.895,47.223 15.541,47.576 	"/>
	<polygon clip-path="url(#SVGID_6_)" fill="#222221" points="16.229,46.889 16.583,46.535 17.583,47.535 17.229,47.889 	"/>
	<polygon clip-path="url(#SVGID_6_)" fill="#222221" points="14.844,44.922 15.197,44.569 16.197,45.568 15.843,45.922 	"/>
	<polygon clip-path="url(#SVGID_6_)" fill="#222221" points="16.542,45.223 16.895,44.869 17.895,45.869 17.541,46.223 	"/>
	<polygon clip-path="url(#SVGID_6_)" fill="#222221" points="14.541,43.223 14.895,42.869 15.895,43.869 15.541,44.223 	"/>
	<polygon clip-path="url(#SVGID_6_)" fill="#222221" points="16.229,43.535 16.583,43.182 17.583,44.182 17.229,44.535 	"/>
	<polygon clip-path="url(#SVGID_6_)" fill="#222221" points="14.844,41.568 15.197,41.215 16.197,42.214 15.843,42.568 	"/>
	<polygon clip-path="url(#SVGID_6_)" fill="#222221" points="16.542,41.869 16.895,41.515 17.895,42.515 17.541,42.869 	"/>
	<polygon clip-path="url(#SVGID_6_)" fill="#222221" points="14.541,39.869 14.895,39.515 15.895,40.515 15.541,40.869 	"/>
	<polygon clip-path="url(#SVGID_6_)" fill="#222221" points="16.229,40.181 16.583,39.828 17.583,40.828 17.229,41.181 	"/>
	<polygon clip-path="url(#SVGID_6_)" fill="#222221" points="14.844,38.213 15.197,37.86 16.197,38.859 15.843,39.213 	"/>
	<polygon clip-path="url(#SVGID_6_)" fill="#222221" points="16.542,38.514 16.895,38.16 17.895,39.16 17.541,39.514 	"/>
	<polygon clip-path="url(#SVGID_6_)" fill="#222221" points="12.875,46.889 13.229,46.535 14.229,47.535 13.875,47.889 	"/>
	<polygon clip-path="url(#SVGID_6_)" fill="#222221" points="11.49,44.922 11.843,44.569 12.843,45.568 12.489,45.922 	"/>
	<polygon clip-path="url(#SVGID_6_)" fill="#222221" points="13.188,45.223 13.541,44.869 14.541,45.869 14.187,46.223 	"/>
	<polygon clip-path="url(#SVGID_6_)" fill="#222221" points="11.187,43.223 11.541,42.869 12.541,43.869 12.187,44.223 	"/>
	<polygon clip-path="url(#SVGID_6_)" fill="#222221" points="12.875,43.535 13.229,43.182 14.229,44.182 13.875,44.535 	"/>
	<polygon clip-path="url(#SVGID_6_)" fill="#222221" points="11.49,41.568 11.843,41.215 12.843,42.214 12.489,42.568 	"/>
	<polygon clip-path="url(#SVGID_6_)" fill="#222221" points="13.188,41.869 13.541,41.515 14.541,42.515 14.187,42.869 	"/>
	<polygon clip-path="url(#SVGID_6_)" fill="#222221" points="11.187,39.869 11.541,39.515 12.541,40.515 12.187,40.869 	"/>
	<polygon clip-path="url(#SVGID_6_)" fill="#222221" points="12.875,40.181 13.229,39.828 14.229,40.828 13.875,41.181 	"/>
	<polygon clip-path="url(#SVGID_6_)" fill="#222221" points="11.49,38.213 11.843,37.86 12.843,38.859 12.489,39.213 	"/>
	<polygon clip-path="url(#SVGID_6_)" fill="#222221" points="13.188,38.514 13.541,38.16 14.541,39.16 14.187,39.514 	"/>
	<polygon clip-path="url(#SVGID_6_)" fill="#222221" points="12.875,36.826 13.229,36.473 14.229,37.473 13.875,37.826 	"/>
</g>
<path fill="#222221" d="M36,36c-1,2-2,7-5,7s-3-3.578-3-3.578s-1.334,0.661-3.5,0.661s-3.563-0.687-3.563-0.687S21,43,18,43
	s-4-5-5-7c0,0-2.084,10,0,11s11.5,1,11.5,1s9.416,0,11.5-1S36,36,36,36z"/>
<path fill="#222221" d="M0,0c0,0,2.5,15,10.75,15c0,0-4.656-2.469-4.875-8c0.173,1.583,1.74,6.125,6.199,7.75
	c0,0-2.593-1.031-2.949-5.25c1.629,7.032,6.417,5.187,6.75,5.062c-1.917-0.688-5.019-6.342-4.851-10.188
	C12,10.5,16.264,14.708,23.014,15.083c0,0-5.561-3.018-8.515-10.842C16.625,10.708,22.927,14.97,26.625,15
	c-4.333-2.219-5.633-7.455-5.633-7.455s2.005,7.282,8.91,7.188c0,0-4.401-2.644-5.679-6.736c0,0,2.671,6.898,8.902,6.439
	c0,0-3.844-0.812-4.723-7.506c0.719,6.701,6.486,7.777,6.785,7.694C35.164,13.892,32,8.854,32,8.854
	c1.875,0.354,5.125,5.604,5.125,5.604C36.208,9.448,33.406,6.141,32,5c2.667,2.125,7.708,6.417,7.083,12.708
	c1.583-0.875,1.667-9.5-4.356-14.028C38.583,6.458,41,11.542,40.25,16.5c1.875-0.417,2.958-3.458,1.75-8.083
	c1,3.146,1.375,5.292,0,7.917C44.167,15.625,47.697,8.128,47.938,0H0z"/>
<path fill="#222221" d="M5.001,12.016c-1.584,0.156-1.845,3.062-1.845,3.062c-0.781-0.375-1.094-3.5-0.906-5.156
	c-0.364,1.234-0.468,3.582-0.249,4.55c-1-0.333-1.292-2.722-1.177-3.769c-0.312,0.708-0.097,2.802-0.097,2.802
	C0.113,13.376-0.001,12.193,0,11.984V0.422L5.001,12.016z"/>
<path fill="#222221" d="M42.999,11.99c1.584,0.156,1.845,3.062,1.845,3.062c0.781-0.375,1.094-3.5,0.906-5.156
	c0.364,1.234,0.468,3.582,0.249,4.55c1-0.333,1.292-2.722,1.177-3.769c0.312,0.708,0.098,2.802,0.098,2.802
	c0.613-0.129,0.729-1.312,0.728-1.521V0.396L42.999,11.99z"/>
<g>
	<defs>
		<path id="SVGID_7_" d="M24,0L24,0H0v19l5-7c0,0-6-16,11-7c4.161,2.203,5,3,8,3s3.839-0.797,8-3c17-9,11,7,11,7l5,7V0H24z"/>
	</defs>
	<clipPath id="SVGID_8_">
		<use xlink:href="#SVGID_7_"  overflow="visible"/>
	</clipPath>
	
		<line clip-path="url(#SVGID_8_)" fill="none" stroke="#222221" stroke-width="0.1125" stroke-dasharray="0.75,0.75" x1="41.771" y1="19.125" x2="69.312" y2="19.125"/>
	
		<line clip-path="url(#SVGID_8_)" fill="none" stroke="#222221" stroke-width="0.1125" stroke-dasharray="0.75,0.75" x1="41.771" y1="17.625" x2="69.312" y2="17.625"/>
	
		<line clip-path="url(#SVGID_8_)" fill="none" stroke="#222221" stroke-width="0.1125" stroke-dasharray="0.75,0.75" x1="41.771" y1="16.125" x2="69.312" y2="16.125"/>
	
		<line clip-path="url(#SVGID_8_)" fill="none" stroke="#222221" stroke-width="0.1125" stroke-dasharray="0.75,0.75" x1="41.771" y1="14.625" x2="69.312" y2="14.625"/>
	
		<line clip-path="url(#SVGID_8_)" fill="none" stroke="#222221" stroke-width="0.1125" stroke-dasharray="0.75,0.75" x1="41.771" y1="13.125" x2="69.312" y2="13.125"/>
	
		<line clip-path="url(#SVGID_8_)" fill="none" stroke="#222221" stroke-width="0.1125" stroke-dasharray="0.75,0.75" x1="41.771" y1="11.625" x2="69.312" y2="11.625"/>
	
		<line clip-path="url(#SVGID_8_)" fill="none" stroke="#222221" stroke-width="0.1125" stroke-dasharray="0.75,0.75" x1="41.771" y1="10.125" x2="69.312" y2="10.125"/>
	
		<line clip-path="url(#SVGID_8_)" fill="none" stroke="#222221" stroke-width="0.1125" stroke-dasharray="0.75,0.75" x1="41.771" y1="8.625" x2="69.312" y2="8.625"/>
	
		<line clip-path="url(#SVGID_8_)" fill="none" stroke="#222221" stroke-width="0.1125" stroke-dasharray="0.75,0.75" x1="41.771" y1="7.125" x2="69.312" y2="7.125"/>
	
		<line clip-path="url(#SVGID_8_)" fill="none" stroke="#222221" stroke-width="0.1125" stroke-dasharray="0.75,0.75" x1="41.771" y1="5.625" x2="69.312" y2="5.625"/>
	
		<line clip-path="url(#SVGID_8_)" fill="none" stroke="#222221" stroke-width="0.1125" stroke-dasharray="0.75,0.75" x1="41.771" y1="4.125" x2="69.312" y2="4.125"/>
	
		<line clip-path="url(#SVGID_8_)" fill="none" stroke="#222221" stroke-width="0.1125" stroke-dasharray="0.75,0.75" x1="41.771" y1="2.625" x2="69.312" y2="2.625"/>
	
		<line clip-path="url(#SVGID_8_)" fill="none" stroke="#222221" stroke-width="0.1125" stroke-dasharray="0.75,0.75" x1="42.536" y1="18.375" x2="70.076" y2="18.375"/>
	
		<line clip-path="url(#SVGID_8_)" fill="none" stroke="#222221" stroke-width="0.1125" stroke-dasharray="0.75,0.75" x1="42.536" y1="16.875" x2="70.076" y2="16.875"/>
	
		<line clip-path="url(#SVGID_8_)" fill="none" stroke="#222221" stroke-width="0.1125" stroke-dasharray="0.75,0.75" x1="42.536" y1="15.375" x2="70.076" y2="15.375"/>
	
		<line clip-path="url(#SVGID_8_)" fill="none" stroke="#222221" stroke-width="0.1125" stroke-dasharray="0.75,0.75" x1="42.536" y1="13.875" x2="70.076" y2="13.875"/>
	
		<line clip-path="url(#SVGID_8_)" fill="none" stroke="#222221" stroke-width="0.1125" stroke-dasharray="0.75,0.75" x1="42.536" y1="12.375" x2="70.076" y2="12.375"/>
	
		<line clip-path="url(#SVGID_8_)" fill="none" stroke="#222221" stroke-width="0.1125" stroke-dasharray="0.75,0.75" x1="42.536" y1="10.875" x2="70.076" y2="10.875"/>
	
		<line clip-path="url(#SVGID_8_)" fill="none" stroke="#222221" stroke-width="0.1125" stroke-dasharray="0.75,0.75" x1="42.536" y1="9.375" x2="70.076" y2="9.375"/>
	
		<line clip-path="url(#SVGID_8_)" fill="none" stroke="#222221" stroke-width="0.1125" stroke-dasharray="0.75,0.75" x1="42.536" y1="7.875" x2="70.076" y2="7.875"/>
	
		<line clip-path="url(#SVGID_8_)" fill="none" stroke="#222221" stroke-width="0.1125" stroke-dasharray="0.75,0.75" x1="42.536" y1="6.375" x2="70.076" y2="6.375"/>
	
		<line clip-path="url(#SVGID_8_)" fill="none" stroke="#222221" stroke-width="0.1125" stroke-dasharray="0.75,0.75" x1="42.536" y1="4.875" x2="70.076" y2="4.875"/>
	
		<line clip-path="url(#SVGID_8_)" fill="none" stroke="#222221" stroke-width="0.1125" stroke-dasharray="0.75,0.75" x1="42.536" y1="3.375" x2="70.076" y2="3.375"/>
	
		<line clip-path="url(#SVGID_8_)" fill="none" stroke="#222221" stroke-width="0.1125" stroke-dasharray="0.75,0.75" x1="35.651" y1="4.875" x2="39.477" y2="4.875"/>
	
		<line clip-path="url(#SVGID_8_)" fill="none" stroke="#222221" stroke-width="0.1125" stroke-dasharray="0.75,0.75" x1="41.771" y1="2.625" x2="69.312" y2="2.625"/>
	
		<line clip-path="url(#SVGID_8_)" fill="none" stroke="#222221" stroke-width="0.1125" stroke-dasharray="0.75,0.75" x1="41.771" y1="1.125" x2="69.312" y2="1.125"/>
	
		<line clip-path="url(#SVGID_8_)" fill="none" stroke="#222221" stroke-width="0.1125" stroke-dasharray="0.75,0.75" x1="42.536" y1="3.375" x2="70.076" y2="3.375"/>
	
		<line clip-path="url(#SVGID_8_)" fill="none" stroke="#222221" stroke-width="0.1125" stroke-dasharray="0.75,0.75" x1="42.536" y1="1.875" x2="70.076" y2="1.875"/>
	
		<line clip-path="url(#SVGID_8_)" fill="none" stroke="#222221" stroke-width="0.1125" stroke-dasharray="0.75,0.75" x1="42.536" y1="0.375" x2="70.076" y2="0.375"/>
	
		<line clip-path="url(#SVGID_8_)" fill="none" stroke="#222221" stroke-width="0.1125" stroke-dasharray="0.75,0.75" x1="14.771" y1="19.125" x2="42.311" y2="19.125"/>
	
		<line clip-path="url(#SVGID_8_)" fill="none" stroke="#222221" stroke-width="0.1125" stroke-dasharray="0.75,0.75" x1="14.771" y1="17.625" x2="42.311" y2="17.625"/>
	
		<line clip-path="url(#SVGID_8_)" fill="none" stroke="#222221" stroke-width="0.1125" stroke-dasharray="0.75,0.75" x1="14.771" y1="16.125" x2="42.311" y2="16.125"/>
	
		<line clip-path="url(#SVGID_8_)" fill="none" stroke="#222221" stroke-width="0.1125" stroke-dasharray="0.75,0.75" x1="14.771" y1="14.625" x2="42.311" y2="14.625"/>
	
		<line clip-path="url(#SVGID_8_)" fill="none" stroke="#222221" stroke-width="0.1125" stroke-dasharray="0.75,0.75" x1="14.771" y1="13.125" x2="42.311" y2="13.125"/>
	
		<line clip-path="url(#SVGID_8_)" fill="none" stroke="#222221" stroke-width="0.1125" stroke-dasharray="0.75,0.75" x1="14.771" y1="11.625" x2="42.311" y2="11.625"/>
	
		<line clip-path="url(#SVGID_8_)" fill="none" stroke="#222221" stroke-width="0.1125" stroke-dasharray="0.75,0.75" x1="14.771" y1="10.125" x2="42.311" y2="10.125"/>
	
		<line clip-path="url(#SVGID_8_)" fill="none" stroke="#222221" stroke-width="0.1125" stroke-dasharray="0.75,0.75" x1="14.771" y1="8.625" x2="42.311" y2="8.625"/>
	
		<line clip-path="url(#SVGID_8_)" fill="none" stroke="#222221" stroke-width="0.1125" stroke-dasharray="0.75,0.75" x1="14.771" y1="7.125" x2="42.311" y2="7.125"/>
	
		<line clip-path="url(#SVGID_8_)" fill="none" stroke="#222221" stroke-width="0.1125" stroke-dasharray="0.75,0.75" x1="14.771" y1="5.625" x2="42.311" y2="5.625"/>
	
		<line clip-path="url(#SVGID_8_)" fill="none" stroke="#222221" stroke-width="0.1125" stroke-dasharray="0.75,0.75" x1="14.771" y1="4.125" x2="42.311" y2="4.125"/>
	
		<line clip-path="url(#SVGID_8_)" fill="none" stroke="#222221" stroke-width="0.1125" stroke-dasharray="0.75,0.75" x1="14.771" y1="2.625" x2="42.311" y2="2.625"/>
	
		<line clip-path="url(#SVGID_8_)" fill="none" stroke="#222221" stroke-width="0.1125" stroke-dasharray="0.75,0.75" x1="15.536" y1="18.375" x2="43.076" y2="18.375"/>
	
		<line clip-path="url(#SVGID_8_)" fill="none" stroke="#222221" stroke-width="0.1125" stroke-dasharray="0.75,0.75" x1="15.536" y1="16.875" x2="43.076" y2="16.875"/>
	
		<line clip-path="url(#SVGID_8_)" fill="none" stroke="#222221" stroke-width="0.1125" stroke-dasharray="0.75,0.75" x1="15.536" y1="15.375" x2="43.076" y2="15.375"/>
	
		<line clip-path="url(#SVGID_8_)" fill="none" stroke="#222221" stroke-width="0.1125" stroke-dasharray="0.75,0.75" x1="15.536" y1="13.875" x2="43.076" y2="13.875"/>
	
		<line clip-path="url(#SVGID_8_)" fill="none" stroke="#222221" stroke-width="0.1125" stroke-dasharray="0.75,0.75" x1="15.536" y1="12.375" x2="43.076" y2="12.375"/>
	
		<line clip-path="url(#SVGID_8_)" fill="none" stroke="#222221" stroke-width="0.1125" stroke-dasharray="0.75,0.75" x1="15.536" y1="10.875" x2="43.076" y2="10.875"/>
	
		<line clip-path="url(#SVGID_8_)" fill="none" stroke="#222221" stroke-width="0.1125" stroke-dasharray="0.75,0.75" x1="15.536" y1="9.375" x2="43.076" y2="9.375"/>
	
		<line clip-path="url(#SVGID_8_)" fill="none" stroke="#222221" stroke-width="0.1125" stroke-dasharray="0.75,0.75" x1="15.536" y1="7.875" x2="43.076" y2="7.875"/>
	
		<line clip-path="url(#SVGID_8_)" fill="none" stroke="#222221" stroke-width="0.1125" stroke-dasharray="0.75,0.75" x1="15.536" y1="6.375" x2="43.076" y2="6.375"/>
	
		<line clip-path="url(#SVGID_8_)" fill="none" stroke="#222221" stroke-width="0.1125" stroke-dasharray="0.75,0.75" x1="15.536" y1="4.875" x2="43.076" y2="4.875"/>
	
		<line clip-path="url(#SVGID_8_)" fill="none" stroke="#222221" stroke-width="0.1125" stroke-dasharray="0.75,0.75" x1="15.536" y1="3.375" x2="43.076" y2="3.375"/>
	
		<line clip-path="url(#SVGID_8_)" fill="none" stroke="#222221" stroke-width="0.1125" stroke-dasharray="0.75,0.75" x1="8.651" y1="4.875" x2="12.476" y2="4.875"/>
	
		<line clip-path="url(#SVGID_8_)" fill="none" stroke="#222221" stroke-width="0.1125" stroke-dasharray="0.75,0.75" x1="14.771" y1="2.625" x2="42.311" y2="2.625"/>
	
		<line clip-path="url(#SVGID_8_)" fill="none" stroke="#222221" stroke-width="0.1125" stroke-dasharray="0.75,0.75" x1="14.771" y1="1.125" x2="42.311" y2="1.125"/>
	
		<line clip-path="url(#SVGID_8_)" fill="none" stroke="#222221" stroke-width="0.1125" stroke-dasharray="0.75,0.75" x1="15.536" y1="3.375" x2="43.076" y2="3.375"/>
	
		<line clip-path="url(#SVGID_8_)" fill="none" stroke="#222221" stroke-width="0.1125" stroke-dasharray="0.75,0.75" x1="15.536" y1="1.875" x2="43.076" y2="1.875"/>
	
		<line clip-path="url(#SVGID_8_)" fill="none" stroke="#222221" stroke-width="0.1125" stroke-dasharray="0.75,0.75" x1="15.536" y1="0.375" x2="43.076" y2="0.375"/>
	
		<line clip-path="url(#SVGID_8_)" fill="none" stroke="#222221" stroke-width="0.1125" stroke-dasharray="0.75,0.75" x1="-12.229" y1="19.125" x2="15.311" y2="19.125"/>
	
		<line clip-path="url(#SVGID_8_)" fill="none" stroke="#222221" stroke-width="0.1125" stroke-dasharray="0.75,0.75" x1="-12.229" y1="17.625" x2="15.311" y2="17.625"/>
	
		<line clip-path="url(#SVGID_8_)" fill="none" stroke="#222221" stroke-width="0.1125" stroke-dasharray="0.75,0.75" x1="-12.229" y1="16.125" x2="15.311" y2="16.125"/>
	
		<line clip-path="url(#SVGID_8_)" fill="none" stroke="#222221" stroke-width="0.1125" stroke-dasharray="0.75,0.75" x1="-12.229" y1="14.625" x2="15.311" y2="14.625"/>
	
		<line clip-path="url(#SVGID_8_)" fill="none" stroke="#222221" stroke-width="0.1125" stroke-dasharray="0.75,0.75" x1="-12.229" y1="13.125" x2="15.311" y2="13.125"/>
	
		<line clip-path="url(#SVGID_8_)" fill="none" stroke="#222221" stroke-width="0.1125" stroke-dasharray="0.75,0.75" x1="-12.229" y1="11.625" x2="15.311" y2="11.625"/>
	
		<line clip-path="url(#SVGID_8_)" fill="none" stroke="#222221" stroke-width="0.1125" stroke-dasharray="0.75,0.75" x1="-12.229" y1="10.125" x2="15.311" y2="10.125"/>
	
		<line clip-path="url(#SVGID_8_)" fill="none" stroke="#222221" stroke-width="0.1125" stroke-dasharray="0.75,0.75" x1="-12.229" y1="8.625" x2="15.311" y2="8.625"/>
	
		<line clip-path="url(#SVGID_8_)" fill="none" stroke="#222221" stroke-width="0.1125" stroke-dasharray="0.75,0.75" x1="-12.229" y1="7.125" x2="15.311" y2="7.125"/>
	
		<line clip-path="url(#SVGID_8_)" fill="none" stroke="#222221" stroke-width="0.1125" stroke-dasharray="0.75,0.75" x1="-12.229" y1="5.625" x2="15.311" y2="5.625"/>
	
		<line clip-path="url(#SVGID_8_)" fill="none" stroke="#222221" stroke-width="0.1125" stroke-dasharray="0.75,0.75" x1="-12.229" y1="4.125" x2="15.311" y2="4.125"/>
	
		<line clip-path="url(#SVGID_8_)" fill="none" stroke="#222221" stroke-width="0.1125" stroke-dasharray="0.75,0.75" x1="-12.229" y1="2.625" x2="15.311" y2="2.625"/>
	
		<line clip-path="url(#SVGID_8_)" fill="none" stroke="#222221" stroke-width="0.1125" stroke-dasharray="0.75,0.75" x1="-11.464" y1="18.375" x2="16.076" y2="18.375"/>
	
		<line clip-path="url(#SVGID_8_)" fill="none" stroke="#222221" stroke-width="0.1125" stroke-dasharray="0.75,0.75" x1="-11.464" y1="16.875" x2="16.076" y2="16.875"/>
	
		<line clip-path="url(#SVGID_8_)" fill="none" stroke="#222221" stroke-width="0.1125" stroke-dasharray="0.75,0.75" x1="-11.464" y1="15.375" x2="16.076" y2="15.375"/>
	
		<line clip-path="url(#SVGID_8_)" fill="none" stroke="#222221" stroke-width="0.1125" stroke-dasharray="0.75,0.75" x1="-11.464" y1="13.875" x2="16.076" y2="13.875"/>
	
		<line clip-path="url(#SVGID_8_)" fill="none" stroke="#222221" stroke-width="0.1125" stroke-dasharray="0.75,0.75" x1="-11.464" y1="12.375" x2="16.076" y2="12.375"/>
	
		<line clip-path="url(#SVGID_8_)" fill="none" stroke="#222221" stroke-width="0.1125" stroke-dasharray="0.75,0.75" x1="-11.464" y1="10.875" x2="16.076" y2="10.875"/>
	
		<line clip-path="url(#SVGID_8_)" fill="none" stroke="#222221" stroke-width="0.1125" stroke-dasharray="0.75,0.75" x1="-11.464" y1="9.375" x2="16.076" y2="9.375"/>
	
		<line clip-path="url(#SVGID_8_)" fill="none" stroke="#222221" stroke-width="0.1125" stroke-dasharray="0.75,0.75" x1="-11.464" y1="7.875" x2="16.076" y2="7.875"/>
	
		<line clip-path="url(#SVGID_8_)" fill="none" stroke="#222221" stroke-width="0.1125" stroke-dasharray="0.75,0.75" x1="-11.464" y1="6.375" x2="16.076" y2="6.375"/>
	
		<line clip-path="url(#SVGID_8_)" fill="none" stroke="#222221" stroke-width="0.1125" stroke-dasharray="0.75,0.75" x1="-11.464" y1="4.875" x2="16.076" y2="4.875"/>
	
		<line clip-path="url(#SVGID_8_)" fill="none" stroke="#222221" stroke-width="0.1125" stroke-dasharray="0.75,0.75" x1="-11.464" y1="3.375" x2="16.076" y2="3.375"/>
	
		<line clip-path="url(#SVGID_8_)" fill="none" stroke="#222221" stroke-width="0.1125" stroke-dasharray="0.75,0.75" x1="-12.229" y1="2.625" x2="15.311" y2="2.625"/>
	
		<line clip-path="url(#SVGID_8_)" fill="none" stroke="#222221" stroke-width="0.1125" stroke-dasharray="0.75,0.75" x1="-12.229" y1="1.125" x2="15.311" y2="1.125"/>
	
		<line clip-path="url(#SVGID_8_)" fill="none" stroke="#222221" stroke-width="0.1125" stroke-dasharray="0.75,0.75" x1="-11.464" y1="3.375" x2="16.076" y2="3.375"/>
	
		<line clip-path="url(#SVGID_8_)" fill="none" stroke="#222221" stroke-width="0.1125" stroke-dasharray="0.75,0.75" x1="-11.464" y1="1.875" x2="16.076" y2="1.875"/>
	
		<line clip-path="url(#SVGID_8_)" fill="none" stroke="#222221" stroke-width="0.1125" stroke-dasharray="0.75,0.75" x1="-11.464" y1="0.375" x2="16.076" y2="0.375"/>
</g>
</svg>
